<svg width="50" height="50" viewBox="0 0 50 50" fill="none" xmlns="http://www.w3.org/2000/svg">
<path d="M5.35718 12.0536C5.35718 10.2776 6.06269 8.57431 7.31852 7.31849C8.57434 6.06266 10.2776 5.35715 12.0536 5.35715H37.9465C39.7225 5.35715 41.4257 6.06266 42.6816 7.31849C43.9374 8.57431 44.6429 10.2776 44.6429 12.0536V37.9464C44.6429 39.7224 43.9374 41.4257 42.6816 42.6815C41.4257 43.9373 39.7225 44.6429 37.9465 44.6429H12.0536C10.2776 44.6429 8.57434 43.9373 7.31852 42.6815C6.06269 41.4257 5.35718 39.7224 5.35718 37.9464V12.0536ZM8.03575 33.0357V37.9464C8.03575 39.012 8.45906 40.034 9.21255 40.7875C9.96605 41.541 10.988 41.9643 12.0536 41.9643H16.9643V33.0357H8.03575ZM16.9643 30.3571V19.6429H8.03575V30.3571H16.9643ZM19.6429 33.0357V41.9643H30.3572V33.0357H19.6429ZM30.3572 30.3571V19.6429H19.6429V30.3571H30.3572ZM33.0357 33.0357V41.9643H37.9465C39.0121 41.9643 40.034 41.541 40.7875 40.7875C41.541 40.034 41.9643 39.012 41.9643 37.9464V33.0357H33.0357ZM41.9643 30.3571V19.6429H33.0357V30.3571H41.9643ZM41.9643 12.0536C41.9643 10.988 41.541 9.96602 40.7875 9.21252C40.034 8.45903 39.0121 8.03572 37.9465 8.03572H33.0357V16.9643H41.9643V12.0536ZM30.3572 8.03572H19.6429V16.9643H30.3572V8.03572ZM16.9643 8.03572H12.0536C10.988 8.03572 9.96605 8.45903 9.21255 9.21252C8.45906 9.96602 8.03575 10.988 8.03575 12.0536V16.9643H16.9643V8.03572Z" fill="black"/>
</svg>
