<svg width="24" height="24" viewBox="0 0 24 24" fill="none" xmlns="http://www.w3.org/2000/svg">
<path d="M0.214355 4.23215C0.214355 3.16655 0.637664 2.14459 1.39116 1.3911C2.14465 0.637603 3.16661 0.214294 4.23221 0.214294H19.7679C20.8335 0.214294 21.8555 0.637603 22.609 1.3911C23.3625 2.14459 23.7858 3.16655 23.7858 4.23215V19.7679C23.7858 20.8335 23.3625 21.8554 22.609 22.6089C21.8555 23.3624 20.8335 23.7857 19.7679 23.7857H4.23221C3.16661 23.7857 2.14465 23.3624 1.39116 22.6089C0.637664 21.8554 0.214355 20.8335 0.214355 19.7679V4.23215ZM1.8215 16.8214V19.7679C1.8215 20.4072 2.07548 21.0204 2.52758 21.4725C2.97968 21.9246 3.59285 22.1786 4.23221 22.1786H7.17864V16.8214H1.8215ZM7.17864 15.2143V8.78572H1.8215V15.2143H7.17864ZM8.78578 16.8214V22.1786H15.2144V16.8214H8.78578ZM15.2144 15.2143V8.78572H8.78578V15.2143H15.2144ZM16.8215 16.8214V22.1786H19.7679C20.4073 22.1786 21.0205 21.9246 21.4726 21.4725C21.9247 21.0204 22.1786 20.4072 22.1786 19.7679V16.8214H16.8215ZM22.1786 15.2143V8.78572H16.8215V15.2143H22.1786ZM22.1786 4.23215C22.1786 3.59279 21.9247 2.97962 21.4726 2.52752C21.0205 2.07542 20.4073 1.82144 19.7679 1.82144H16.8215V7.17858H22.1786V4.23215ZM15.2144 1.82144H8.78578V7.17858H15.2144V1.82144ZM7.17864 1.82144H4.23221C3.59285 1.82144 2.97968 2.07542 2.52758 2.52752C2.07548 2.97962 1.8215 3.59279 1.8215 4.23215V7.17858H7.17864V1.82144Z" fill="url(#paint0_linear_22_17)"/>
<defs>
<linearGradient id="paint0_linear_22_17" x1="12.0001" y1="0.214294" x2="12.0001" y2="23.7857" gradientUnits="userSpaceOnUse">
<stop stop-color="#7FB500"/>
<stop offset="1" stop-color="#001D00"/>
</linearGradient>
</defs>
</svg>
