<svg width="50" height="50" viewBox="0 0 50 50" fill="none" xmlns="http://www.w3.org/2000/svg">
<path d="M25 43.75C28.7084 43.75 32.3335 42.6503 35.4169 40.5901C38.5004 38.5298 40.9036 35.6014 42.3227 32.1753C43.7419 28.7492 44.1132 24.9792 43.3897 21.3421C42.6663 17.7049 40.8805 14.364 38.2582 11.7418C35.636 9.11952 32.2951 7.33376 28.6579 6.61028C25.0208 5.88681 21.2508 6.25812 17.8247 7.67727C14.3986 9.09641 11.4702 11.4996 9.40995 14.5831C7.34967 17.6665 6.25 21.2916 6.25 25C6.25 28.1 7 31.0229 8.33333 33.5979L6.25 43.75L16.4021 41.6667C18.9771 43 21.9021 43.75 25 43.75Z" stroke="black" stroke-width="2.5" stroke-linecap="round" stroke-linejoin="round"/>
</svg>
