<svg width="50" height="50" viewBox="0 0 50 50" fill="none" xmlns="http://www.w3.org/2000/svg">
<path d="M42.834 21.2265L27.209 5.60155C26.623 5.01594 25.8285 4.68698 25 4.68698C24.1716 4.68698 23.377 5.01594 22.791 5.60155L7.16603 21.2265C6.87444 21.516 6.6433 21.8605 6.48604 22.24C6.32879 22.6196 6.24856 23.0266 6.25002 23.4375V42.1875C6.25002 42.6019 6.41464 42.9993 6.70767 43.2923C7.00069 43.5854 7.39812 43.75 7.81252 43.75H20.3125C20.7269 43.75 21.1243 43.5854 21.4174 43.2923C21.7104 42.9993 21.875 42.6019 21.875 42.1875V31.25H28.125V42.1875C28.125 42.6019 28.2896 42.9993 28.5827 43.2923C28.8757 43.5854 29.2731 43.75 29.6875 43.75H42.1875C42.6019 43.75 42.9994 43.5854 43.2924 43.2923C43.5854 42.9993 43.75 42.6019 43.75 42.1875V23.4375C43.7515 23.0266 43.6713 22.6196 43.514 22.24C43.3567 21.8605 43.1256 21.516 42.834 21.2265ZM40.625 40.625H31.25V29.6875C31.25 29.2731 31.0854 28.8757 30.7924 28.5826C30.4993 28.2896 30.1019 28.125 29.6875 28.125H20.3125C19.8981 28.125 19.5007 28.2896 19.2077 28.5826C18.9146 28.8757 18.75 29.2731 18.75 29.6875V40.625H9.37502V23.4375L25 7.81249L40.625 23.4375V40.625Z" fill="black"/>
</svg>
