<svg width="50" height="50" viewBox="0 0 50 50" fill="none" xmlns="http://www.w3.org/2000/svg">
<path d="M25.2084 38.6458L25.0001 38.8542L24.7709 38.6458C14.8751 29.6667 8.33341 23.7292 8.33341 17.7083C8.33341 13.5417 11.4584 10.4167 15.6251 10.4167C18.8334 10.4167 21.9584 12.5 23.0626 15.3333H26.9376C28.0417 12.5 31.1667 10.4167 34.3751 10.4167C38.5417 10.4167 41.6667 13.5417 41.6667 17.7083C41.6667 23.7292 35.1251 29.6667 25.2084 38.6458ZM34.3751 6.25C30.7501 6.25 27.2709 7.9375 25.0001 10.5833C22.7292 7.9375 19.2501 6.25 15.6251 6.25C9.20841 6.25 4.16675 11.2708 4.16675 17.7083C4.16675 25.5625 11.2501 32 21.9792 41.7292L25.0001 44.4792L28.0209 41.7292C38.7501 32 45.8334 25.5625 45.8334 17.7083C45.8334 11.2708 40.7917 6.25 34.3751 6.25Z" fill="black"/>
</svg>
