<svg width="30" height="30" viewBox="0 0 30 30" fill="none" xmlns="http://www.w3.org/2000/svg">
<path d="M15 26.25C17.225 26.25 19.4001 25.5902 21.2502 24.354C23.1002 23.1179 24.5422 21.3609 25.3936 19.3052C26.2451 17.2495 26.4679 14.9875 26.0338 12.8052C25.5998 10.623 24.5283 8.61839 22.955 7.04505C21.3816 5.47171 19.3771 4.40025 17.1948 3.96617C15.0125 3.53209 12.7505 3.75487 10.6948 4.60636C8.63914 5.45785 6.88213 6.89979 5.64597 8.74984C4.4098 10.5999 3.75 12.775 3.75 15C3.75 16.86 4.2 18.6138 5 20.1588L3.75 26.25L9.84125 25C11.3863 25.8 13.1413 26.25 15 26.25Z" stroke="url(#paint0_linear_22_13)" stroke-width="2.5" stroke-linecap="round" stroke-linejoin="round"/>
<defs>
<linearGradient id="paint0_linear_22_13" x1="15" y1="3.75" x2="15" y2="26.25" gradientUnits="userSpaceOnUse">
<stop stop-color="#7FB500"/>
<stop offset="1" stop-color="#001D00"/>
</linearGradient>
</defs>
</svg>
