<svg width="24" height="25" viewBox="0 0 24 25" fill="none" xmlns="http://www.w3.org/2000/svg">
<path d="M22.7004 10.7359L13.3254 1.36094C12.9738 1.00957 12.4971 0.812195 12 0.812195C11.5029 0.812195 11.0262 1.00957 10.6746 1.36094L1.29962 10.7359C1.12467 10.9096 0.985979 11.1163 0.891625 11.344C0.797272 11.5718 0.749134 11.816 0.750012 12.0625V23.3125C0.750012 23.5611 0.848784 23.7996 1.0246 23.9754C1.20041 24.1512 1.43887 24.25 1.68751 24.25H9.18751C9.43615 24.25 9.67461 24.1512 9.85042 23.9754C10.0262 23.7996 10.125 23.5611 10.125 23.3125V16.75H13.875V23.3125C13.875 23.5611 13.9738 23.7996 14.1496 23.9754C14.3254 24.1512 14.5639 24.25 14.8125 24.25H22.3125C22.5612 24.25 22.7996 24.1512 22.9754 23.9754C23.1512 23.7996 23.25 23.5611 23.25 23.3125V12.0625C23.2509 11.816 23.2028 11.5718 23.1084 11.344C23.014 11.1163 22.8754 10.9096 22.7004 10.7359ZM21.375 22.375H15.75V15.8125C15.75 15.5639 15.6512 15.3254 15.4754 15.1496C15.2996 14.9738 15.0612 14.875 14.8125 14.875H9.18751C8.93887 14.875 8.70041 14.9738 8.5246 15.1496C8.34878 15.3254 8.25001 15.5639 8.25001 15.8125V22.375H2.62501V12.0625L12 2.6875L21.375 12.0625V22.375Z" fill="url(#paint0_linear_20_96)"/>
<defs>
<linearGradient id="paint0_linear_20_96" x1="12" y1="0.812195" x2="12" y2="24.25" gradientUnits="userSpaceOnUse">
<stop stop-color="#7FB500"/>
<stop offset="1" stop-color="#001D00"/>
</linearGradient>
</defs>
</svg>
