<svg width="139" height="18" viewBox="0 0 139 18" fill="none" xmlns="http://www.w3.org/2000/svg">
<path d="M6.872 0.896C8.872 0.896 10.6 1.24 12.056 1.928C13.528 2.6 14.656 3.544 15.44 4.76C16.24 5.96 16.64 7.36 16.64 8.96C16.64 10.208 16.4 11.328 15.92 12.32C15.456 13.312 14.8 14.16 13.952 14.864C13.104 15.552 12.112 16.08 10.976 16.448C9.856 16.816 8.64 17 7.328 17H4.52C3.496 17 2.656 17.008 2 17.024C1.344 17.04 0.824 17.048 0.44 17.048C0.376 17.048 0.328 17.008 0.296 16.928C0.264 16.848 0.248 16.76 0.248 16.664C0.248 16.552 0.264 16.456 0.296 16.376C0.328 16.28 0.376 16.232 0.44 16.232H1.472C1.888 16.232 2.152 16.152 2.264 15.992C2.392 15.832 2.456 15.544 2.456 15.128V3.704C2.456 3.08 2.424 2.624 2.36 2.336C2.312 2.048 2.248 1.864 2.168 1.784C2.104 1.704 2.032 1.664 1.952 1.664H0.44C0.296 1.664 0.224 1.544 0.224 1.304C0.224 1.208 0.24 1.112 0.272 1.016C0.32 0.903999 0.376 0.847999 0.44 0.847999C0.632 0.847999 0.912 0.855999 1.28 0.871999C1.648 0.871999 2.04 0.879999 2.456 0.896C2.888 0.896 3.272 0.896 3.608 0.896H6.872ZM7.4 16.016C8.712 16 9.856 15.728 10.832 15.2C11.808 14.672 12.56 13.928 13.088 12.968C13.632 12.008 13.904 10.872 13.904 9.56C13.904 8.12 13.632 6.848 13.088 5.744C12.544 4.624 11.68 3.728 10.496 3.056C9.328 2.368 7.776 1.968 5.84 1.856C5.552 1.84 5.328 1.912 5.168 2.072C5.008 2.216 4.928 2.472 4.928 2.84V13.928C4.928 14.536 4.952 14.992 5 15.296C5.064 15.6 5.136 15.8 5.216 15.896C5.296 15.992 5.368 16.04 5.432 16.04L7.4 16.016ZM21.8418 10.904C22.3538 10.888 22.8418 10.864 23.3058 10.832C23.7858 10.8 24.1858 10.768 24.5058 10.736C24.8258 10.688 25.0018 10.656 25.0338 10.64L25.2018 9.632C25.2338 9.552 25.3458 9.512 25.5378 9.512C25.5858 9.512 25.6498 9.528 25.7298 9.56C25.8098 9.576 25.8498 9.616 25.8498 9.68C25.8178 9.936 25.7938 10.184 25.7778 10.424C25.7618 10.648 25.7538 10.896 25.7538 11.168C25.7538 11.408 25.7618 11.672 25.7778 11.96C25.7938 12.232 25.8178 12.504 25.8498 12.776C25.8498 12.824 25.8018 12.864 25.7058 12.896C25.6258 12.912 25.5458 12.92 25.4658 12.92C25.4018 12.92 25.3378 12.912 25.2738 12.896C25.2258 12.88 25.2018 12.856 25.2018 12.824L25.0098 11.792C24.9778 11.76 24.8018 11.728 24.4818 11.696C24.1778 11.664 23.7938 11.632 23.3298 11.6C22.8658 11.568 22.3698 11.544 21.8418 11.528V14.432C21.8418 15.104 21.8898 15.576 21.9858 15.848C22.0818 16.104 22.1938 16.232 22.3218 16.232H23.0898C23.8418 16.216 24.5538 16.144 25.2258 16.016C25.9138 15.888 26.4178 15.712 26.7378 15.488L26.8578 14.552C26.8738 14.504 26.9218 14.472 27.0018 14.456C27.0978 14.424 27.1778 14.408 27.2418 14.408C27.3218 14.408 27.3938 14.416 27.4578 14.432C27.5218 14.448 27.5458 14.488 27.5298 14.552C27.4658 14.968 27.4258 15.44 27.4098 15.968C27.3938 16.48 27.3858 16.952 27.3858 17.384C27.3858 17.432 27.3458 17.464 27.2658 17.48C27.2018 17.496 27.1458 17.504 27.0978 17.504C27.0338 17.504 26.9538 17.496 26.8578 17.48C26.7778 17.464 26.7378 17.432 26.7378 17.384V17H22.4658C21.4898 17 20.7378 17 20.2098 17C19.6818 17.016 19.2898 17.024 19.0338 17.024C18.7778 17.04 18.5618 17.048 18.3858 17.048C18.3218 17.048 18.2738 17 18.2418 16.904C18.2258 16.808 18.2178 16.728 18.2178 16.664C18.2178 16.584 18.2258 16.512 18.2418 16.448C18.2738 16.368 18.3138 16.328 18.3618 16.328H19.4418C19.6178 16.328 19.7218 16.288 19.7538 16.208C19.7858 16.128 19.8018 15.936 19.8018 15.632V8.072C19.8018 7.4 19.7538 6.912 19.6578 6.608C19.5778 6.304 19.4658 6.152 19.3218 6.152H18.4578C18.2658 6.152 18.1698 6.032 18.1698 5.792C18.1698 5.536 18.2578 5.408 18.4338 5.408C18.7378 5.408 19.1058 5.416 19.5378 5.432C19.9858 5.448 20.4338 5.456 20.8818 5.456H25.8498V5.072C25.8498 5.024 25.8818 4.992 25.9458 4.976C26.0098 4.944 26.0738 4.928 26.1378 4.928C26.2018 4.928 26.2738 4.944 26.3538 4.976C26.4498 4.992 26.4978 5.024 26.4978 5.072C26.4978 5.504 26.5058 5.976 26.5218 6.488C26.5538 7 26.6018 7.432 26.6658 7.784C26.6818 7.832 26.6578 7.872 26.5938 7.904C26.5298 7.92 26.4658 7.928 26.4018 7.928C26.3378 7.928 26.2498 7.92 26.1378 7.904C26.0418 7.872 25.9938 7.832 25.9938 7.784C25.9298 7.56 25.8498 7.32 25.7538 7.064C25.6738 6.808 25.5378 6.632 25.3458 6.536C25.0418 6.424 24.6658 6.336 24.2178 6.272C23.7698 6.208 23.1698 6.176 22.4178 6.176C22.1938 6.192 22.0418 6.264 21.9618 6.392C21.8818 6.504 21.8418 6.696 21.8418 6.968V10.904ZM39.6929 6.032C39.5169 6.032 39.3889 6.104 39.3089 6.248C39.1489 6.52 38.9329 6.952 38.6609 7.544C38.4049 8.136 38.1249 8.816 37.8209 9.584C37.5329 10.352 37.2369 11.144 36.9329 11.96C36.6289 12.76 36.3409 13.536 36.0689 14.288C35.7969 15.024 35.5649 15.664 35.3729 16.208C35.1969 16.752 35.0769 17.128 35.0129 17.336C34.9489 17.48 34.7889 17.552 34.5329 17.552C34.2929 17.552 34.1409 17.472 34.0769 17.312C33.9969 16.96 33.8369 16.464 33.5969 15.824C33.3569 15.184 33.0769 14.464 32.7569 13.664C32.4369 12.864 32.1009 12.048 31.7489 11.216C31.3969 10.384 31.0529 9.6 30.7169 8.864C30.3969 8.112 30.1169 7.48 29.8769 6.968C29.6849 6.568 29.5089 6.32 29.3489 6.224C29.1889 6.112 28.9409 6.056 28.6049 6.056C28.5089 6.056 28.4609 5.96 28.4609 5.768C28.4609 5.688 28.4689 5.608 28.4849 5.528C28.5169 5.448 28.5569 5.408 28.6049 5.408C29.0529 5.408 29.4369 5.416 29.7569 5.432C30.0769 5.448 30.4529 5.456 30.8849 5.456C31.1889 5.456 31.5569 5.448 31.9889 5.432C32.4369 5.416 32.9329 5.408 33.4769 5.408C33.5409 5.408 33.5809 5.44 33.5969 5.504C33.6129 5.568 33.6209 5.64 33.6209 5.72C33.6209 5.928 33.5729 6.032 33.4769 6.032H32.3249C32.1489 6.032 32.0609 6.104 32.0609 6.248C32.0609 6.312 32.1329 6.56 32.2769 6.992C32.4369 7.408 32.6369 7.944 32.8769 8.6C33.1169 9.24 33.3729 9.936 33.6449 10.688C33.9169 11.44 34.1809 12.176 34.4369 12.896C34.6929 13.6 34.9089 14.216 35.0849 14.744C35.4529 13.496 35.8369 12.304 36.2369 11.168C36.6369 10.032 36.9729 9.056 37.2449 8.24C37.5329 7.408 37.6769 6.84 37.6769 6.536C37.6769 6.344 37.6449 6.216 37.5809 6.152C37.5329 6.088 37.4689 6.056 37.3889 6.056H36.4049C36.2769 6.056 36.2129 5.96 36.2129 5.768C36.2129 5.688 36.2209 5.608 36.2369 5.528C36.2689 5.448 36.3089 5.408 36.3569 5.408C36.7569 5.408 37.0689 5.416 37.2929 5.432C37.5329 5.432 37.7409 5.44 37.9169 5.456C38.1089 5.456 38.3249 5.456 38.5649 5.456C38.8529 5.456 39.1169 5.448 39.3569 5.432C39.5969 5.416 39.9169 5.408 40.3169 5.408C40.3809 5.408 40.4209 5.44 40.4369 5.504C40.4689 5.568 40.4849 5.64 40.4849 5.72C40.4849 5.928 40.4289 6.032 40.3169 6.032H39.6929ZM41.5884 9.488C41.5884 8.048 41.8604 6.776 42.4044 5.672C42.9644 4.568 43.7084 3.64 44.6364 2.888C45.5804 2.12 46.6364 1.544 47.8044 1.16C48.9884 0.776 50.2124 0.584 51.4764 0.584C52.2284 0.584 52.9324 0.671999 53.5884 0.847999C54.2444 1.024 54.8284 1.248 55.3404 1.52V0.967999C55.3404 0.887999 55.3804 0.831999 55.4604 0.8C55.5404 0.767999 55.6284 0.751999 55.7244 0.751999C55.9324 0.751999 56.0364 0.823999 56.0364 0.967999C56.0364 1.56 56.0524 2.16 56.0844 2.768C56.1324 3.376 56.1964 3.96 56.2764 4.52C56.2924 4.6 56.2604 4.664 56.1804 4.712C56.1004 4.744 56.0044 4.76 55.8924 4.76C55.7964 4.76 55.7084 4.744 55.6284 4.712C55.5484 4.664 55.5004 4.6 55.4844 4.52L55.2924 3.392C54.6364 2.784 53.9484 2.344 53.2284 2.072C52.5084 1.8 51.7484 1.664 50.9484 1.664C49.8124 1.664 48.7564 1.936 47.7804 2.48C46.8044 3.024 46.0204 3.832 45.4284 4.904C44.8524 5.976 44.5644 7.32 44.5644 8.936C44.5644 10.568 44.8764 11.928 45.5004 13.016C46.1244 14.088 46.9484 14.896 47.9724 15.44C48.9964 15.968 50.1164 16.232 51.3324 16.232C52.9004 16.232 54.3884 15.752 55.7964 14.792L55.9404 13.664C55.9724 13.488 56.1164 13.4 56.3724 13.4C56.4684 13.4 56.5564 13.424 56.6364 13.472C56.7164 13.52 56.7484 13.584 56.7324 13.664C56.6524 14.08 56.5964 14.584 56.5644 15.176C56.5484 15.752 56.5404 16.344 56.5404 16.952C56.5404 17.08 56.4204 17.144 56.1804 17.144C56.0844 17.144 55.9964 17.128 55.9164 17.096C55.8364 17.064 55.7964 17.016 55.7964 16.952V16.376C54.2444 17 52.7084 17.312 51.1884 17.312C49.8764 17.312 48.6364 17.144 47.4684 16.808C46.3164 16.472 45.2924 15.976 44.3964 15.32C43.5164 14.648 42.8284 13.824 42.3324 12.848C41.8364 11.872 41.5884 10.752 41.5884 9.488ZM65.2659 5.144C66.1139 5.144 66.9219 5.304 67.6899 5.624C68.4739 5.944 69.1619 6.384 69.7539 6.944C70.3619 7.504 70.8339 8.152 71.1699 8.888C71.5219 9.608 71.6979 10.376 71.6979 11.192C71.6979 12.024 71.5219 12.808 71.1699 13.544C70.8339 14.28 70.3619 14.936 69.7539 15.512C69.1619 16.072 68.4739 16.512 67.6899 16.832C66.9219 17.152 66.1139 17.312 65.2659 17.312C64.4179 17.312 63.6019 17.152 62.8179 16.832C62.0499 16.512 61.3619 16.072 60.7539 15.512C60.1619 14.936 59.6899 14.28 59.3379 13.544C59.0019 12.808 58.8339 12.024 58.8339 11.192C58.8339 10.376 59.0019 9.608 59.3379 8.888C59.6899 8.152 60.1619 7.504 60.7539 6.944C61.3619 6.384 62.0499 5.944 62.8179 5.624C63.6019 5.304 64.4179 5.144 65.2659 5.144ZM65.2659 6.008C64.4499 6.008 63.7379 6.248 63.1299 6.728C62.5379 7.192 62.0739 7.816 61.7379 8.6C61.4019 9.384 61.2339 10.248 61.2339 11.192C61.2339 12.136 61.4019 13.008 61.7379 13.808C62.0739 14.608 62.5379 15.248 63.1299 15.728C63.7379 16.208 64.4499 16.448 65.2659 16.448C66.0819 16.448 66.7859 16.208 67.3779 15.728C67.9859 15.248 68.4579 14.608 68.7939 13.808C69.1299 13.008 69.2979 12.136 69.2979 11.192C69.2979 10.248 69.1299 9.384 68.7939 8.6C68.4579 7.816 67.9859 7.192 67.3779 6.728C66.7859 6.248 66.0819 6.008 65.2659 6.008ZM84.1372 17.144C84.1372 17.144 83.9612 16.944 83.6092 16.544C83.2732 16.128 82.8252 15.584 82.2652 14.912C81.7052 14.24 81.0812 13.496 80.3932 12.68C79.7052 11.864 79.0172 11.04 78.3292 10.208C77.6412 9.36 77.0012 8.584 76.4092 7.88H76.3372C76.3692 9.544 76.3932 10.936 76.4092 12.056C76.4412 13.176 76.4652 14.152 76.4812 14.984C76.4812 15.288 76.5132 15.576 76.5772 15.848C76.6412 16.104 76.7292 16.232 76.8412 16.232H77.8012C77.8492 16.232 77.8812 16.288 77.8972 16.4C77.9292 16.512 77.9452 16.616 77.9452 16.712C77.9452 16.776 77.9372 16.84 77.9212 16.904C77.9052 16.952 77.8652 16.976 77.8012 16.976H75.8092C75.4252 16.976 75.0252 16.984 74.6092 17C74.1932 17.016 73.8652 17.024 73.6252 17.024C73.5932 17.024 73.5612 16.992 73.5292 16.928C73.5132 16.864 73.5052 16.8 73.5052 16.736C73.5052 16.656 73.5132 16.568 73.5292 16.472C73.5612 16.376 73.5932 16.328 73.6252 16.328H74.2012C74.4732 16.328 74.6652 16.296 74.7772 16.232C74.8892 16.168 74.9532 16.04 74.9692 15.848C75.0172 15.272 75.0652 14.6 75.1132 13.832C75.1612 13.064 75.2012 12.264 75.2332 11.432C75.2652 10.6 75.2892 9.784 75.3052 8.984C75.3212 8.168 75.3292 7.424 75.3292 6.752L75.2092 6.608C75.0172 6.384 74.8252 6.256 74.6332 6.224C74.4572 6.176 74.1452 6.152 73.6972 6.152C73.6012 6.152 73.5532 6.024 73.5532 5.768C73.5532 5.528 73.6012 5.408 73.6972 5.408C73.9052 5.408 74.2252 5.416 74.6572 5.432C75.1052 5.432 75.5612 5.44 76.0252 5.456C76.4892 5.456 76.8412 5.456 77.0812 5.456C77.0812 5.456 77.2252 5.64 77.5132 6.008C77.8012 6.36 78.1692 6.832 78.6172 7.424C79.0812 8 79.5852 8.632 80.1292 9.32C80.6732 10.008 81.2012 10.688 81.7132 11.36C82.2252 12.016 82.6812 12.6 83.0812 13.112C83.4812 13.624 83.7692 13.992 83.9452 14.216H83.9932C83.9772 12.6 83.9612 11.184 83.9452 9.968C83.9292 8.736 83.8892 7.704 83.8252 6.872C83.7772 6.392 83.6492 6.152 83.4412 6.152H82.6012C82.5372 6.152 82.4892 6.112 82.4572 6.032C82.4412 5.936 82.4332 5.84 82.4332 5.744C82.4332 5.664 82.4492 5.592 82.4812 5.528C82.5132 5.448 82.5532 5.408 82.6012 5.408C82.8412 5.408 83.1612 5.416 83.5612 5.432C83.9612 5.448 84.3052 5.456 84.5932 5.456C84.9292 5.456 85.3052 5.448 85.7212 5.432C86.1372 5.416 86.4972 5.408 86.8012 5.408C86.8332 5.408 86.8652 5.448 86.8972 5.528C86.9292 5.592 86.9452 5.664 86.9452 5.744C86.9452 5.984 86.8972 6.104 86.8012 6.104H85.9612C85.7212 6.104 85.5692 6.168 85.5052 6.296C85.4412 6.424 85.3932 6.624 85.3612 6.896C85.3132 7.344 85.2652 8.088 85.2172 9.128C85.1852 10.152 85.1532 11.352 85.1212 12.728C85.1052 14.104 85.0972 15.552 85.0972 17.072C85.0972 17.232 84.9532 17.312 84.6652 17.312C84.4252 17.312 84.2492 17.256 84.1372 17.144ZM99.2075 17.144C99.2075 17.144 99.0315 16.944 98.6795 16.544C98.3435 16.128 97.8955 15.584 97.3355 14.912C96.7755 14.24 96.1515 13.496 95.4635 12.68C94.7755 11.864 94.0875 11.04 93.3995 10.208C92.7115 9.36 92.0715 8.584 91.4795 7.88H91.4075C91.4395 9.544 91.4635 10.936 91.4795 12.056C91.5115 13.176 91.5355 14.152 91.5515 14.984C91.5515 15.288 91.5835 15.576 91.6475 15.848C91.7115 16.104 91.7995 16.232 91.9115 16.232H92.8715C92.9195 16.232 92.9515 16.288 92.9675 16.4C92.9995 16.512 93.0155 16.616 93.0155 16.712C93.0155 16.776 93.0075 16.84 92.9915 16.904C92.9755 16.952 92.9355 16.976 92.8715 16.976H90.8795C90.4955 16.976 90.0955 16.984 89.6795 17C89.2635 17.016 88.9355 17.024 88.6955 17.024C88.6635 17.024 88.6315 16.992 88.5995 16.928C88.5835 16.864 88.5755 16.8 88.5755 16.736C88.5755 16.656 88.5835 16.568 88.5995 16.472C88.6315 16.376 88.6635 16.328 88.6955 16.328H89.2715C89.5435 16.328 89.7355 16.296 89.8475 16.232C89.9595 16.168 90.0235 16.04 90.0395 15.848C90.0875 15.272 90.1355 14.6 90.1835 13.832C90.2315 13.064 90.2715 12.264 90.3035 11.432C90.3355 10.6 90.3595 9.784 90.3755 8.984C90.3915 8.168 90.3995 7.424 90.3995 6.752L90.2795 6.608C90.0875 6.384 89.8955 6.256 89.7035 6.224C89.5275 6.176 89.2155 6.152 88.7675 6.152C88.6715 6.152 88.6235 6.024 88.6235 5.768C88.6235 5.528 88.6715 5.408 88.7675 5.408C88.9755 5.408 89.2955 5.416 89.7275 5.432C90.1755 5.432 90.6315 5.44 91.0955 5.456C91.5595 5.456 91.9115 5.456 92.1515 5.456C92.1515 5.456 92.2955 5.64 92.5835 6.008C92.8715 6.36 93.2395 6.832 93.6875 7.424C94.1515 8 94.6555 8.632 95.1995 9.32C95.7435 10.008 96.2715 10.688 96.7835 11.36C97.2955 12.016 97.7515 12.6 98.1515 13.112C98.5515 13.624 98.8395 13.992 99.0155 14.216H99.0635C99.0475 12.6 99.0315 11.184 99.0155 9.968C98.9995 8.736 98.9595 7.704 98.8955 6.872C98.8475 6.392 98.7195 6.152 98.5115 6.152H97.6715C97.6075 6.152 97.5595 6.112 97.5275 6.032C97.5115 5.936 97.5035 5.84 97.5035 5.744C97.5035 5.664 97.5195 5.592 97.5515 5.528C97.5835 5.448 97.6235 5.408 97.6715 5.408C97.9115 5.408 98.2315 5.416 98.6315 5.432C99.0315 5.448 99.3755 5.456 99.6635 5.456C99.9995 5.456 100.376 5.448 100.792 5.432C101.208 5.416 101.568 5.408 101.872 5.408C101.904 5.408 101.936 5.448 101.968 5.528C102 5.592 102.016 5.664 102.016 5.744C102.016 5.984 101.968 6.104 101.872 6.104H101.032C100.792 6.104 100.64 6.168 100.576 6.296C100.512 6.424 100.464 6.624 100.432 6.896C100.384 7.344 100.336 8.088 100.288 9.128C100.256 10.152 100.224 11.352 100.192 12.728C100.176 14.104 100.168 15.552 100.168 17.072C100.168 17.232 100.024 17.312 99.7355 17.312C99.4955 17.312 99.3195 17.256 99.2075 17.144ZM107.342 10.904C107.854 10.888 108.342 10.864 108.806 10.832C109.286 10.8 109.686 10.768 110.006 10.736C110.326 10.688 110.502 10.656 110.534 10.64L110.702 9.632C110.734 9.552 110.846 9.512 111.038 9.512C111.086 9.512 111.15 9.528 111.23 9.56C111.31 9.576 111.35 9.616 111.35 9.68C111.318 9.936 111.294 10.184 111.278 10.424C111.262 10.648 111.254 10.896 111.254 11.168C111.254 11.408 111.262 11.672 111.278 11.96C111.294 12.232 111.318 12.504 111.35 12.776C111.35 12.824 111.302 12.864 111.206 12.896C111.126 12.912 111.046 12.92 110.966 12.92C110.902 12.92 110.838 12.912 110.774 12.896C110.726 12.88 110.702 12.856 110.702 12.824L110.51 11.792C110.478 11.76 110.302 11.728 109.982 11.696C109.678 11.664 109.294 11.632 108.83 11.6C108.366 11.568 107.87 11.544 107.342 11.528V14.432C107.342 15.104 107.39 15.576 107.486 15.848C107.582 16.104 107.694 16.232 107.822 16.232H108.59C109.342 16.216 110.054 16.144 110.726 16.016C111.414 15.888 111.918 15.712 112.238 15.488L112.358 14.552C112.374 14.504 112.422 14.472 112.502 14.456C112.598 14.424 112.678 14.408 112.742 14.408C112.822 14.408 112.894 14.416 112.958 14.432C113.022 14.448 113.046 14.488 113.03 14.552C112.966 14.968 112.926 15.44 112.91 15.968C112.894 16.48 112.886 16.952 112.886 17.384C112.886 17.432 112.846 17.464 112.766 17.48C112.702 17.496 112.646 17.504 112.598 17.504C112.534 17.504 112.454 17.496 112.358 17.48C112.278 17.464 112.238 17.432 112.238 17.384V17H107.966C106.99 17 106.238 17 105.71 17C105.182 17.016 104.79 17.024 104.534 17.024C104.278 17.04 104.062 17.048 103.886 17.048C103.822 17.048 103.774 17 103.742 16.904C103.726 16.808 103.718 16.728 103.718 16.664C103.718 16.584 103.726 16.512 103.742 16.448C103.774 16.368 103.814 16.328 103.862 16.328H104.942C105.118 16.328 105.222 16.288 105.254 16.208C105.286 16.128 105.302 15.936 105.302 15.632V8.072C105.302 7.4 105.254 6.912 105.158 6.608C105.078 6.304 104.966 6.152 104.822 6.152H103.958C103.766 6.152 103.67 6.032 103.67 5.792C103.67 5.536 103.758 5.408 103.934 5.408C104.238 5.408 104.606 5.416 105.038 5.432C105.486 5.448 105.934 5.456 106.382 5.456H111.35V5.072C111.35 5.024 111.382 4.992 111.446 4.976C111.51 4.944 111.574 4.928 111.638 4.928C111.702 4.928 111.774 4.944 111.854 4.976C111.95 4.992 111.998 5.024 111.998 5.072C111.998 5.504 112.006 5.976 112.022 6.488C112.054 7 112.102 7.432 112.166 7.784C112.182 7.832 112.158 7.872 112.094 7.904C112.03 7.92 111.966 7.928 111.902 7.928C111.838 7.928 111.75 7.92 111.638 7.904C111.542 7.872 111.494 7.832 111.494 7.784C111.43 7.56 111.35 7.32 111.254 7.064C111.174 6.808 111.038 6.632 110.846 6.536C110.542 6.424 110.166 6.336 109.718 6.272C109.27 6.208 108.67 6.176 107.918 6.176C107.694 6.192 107.542 6.264 107.462 6.392C107.382 6.504 107.342 6.696 107.342 6.968V10.904ZM114.921 11.624C114.921 10.632 115.105 9.744 115.473 8.96C115.857 8.16 116.377 7.48 117.033 6.92C117.689 6.344 118.433 5.904 119.265 5.6C120.113 5.296 120.993 5.144 121.905 5.144C122.449 5.144 122.945 5.216 123.393 5.36C123.857 5.488 124.273 5.648 124.641 5.84V5.432C124.641 5.32 124.737 5.264 124.929 5.264C124.993 5.264 125.057 5.28 125.121 5.312C125.201 5.328 125.241 5.368 125.241 5.432C125.241 5.864 125.265 6.392 125.313 7.016C125.361 7.64 125.417 8.16 125.481 8.576C125.497 8.64 125.465 8.688 125.385 8.72C125.321 8.752 125.249 8.768 125.169 8.768C125.105 8.768 125.033 8.752 124.953 8.72C124.873 8.688 124.825 8.64 124.809 8.576L124.617 7.304C124.137 6.84 123.649 6.512 123.153 6.32C122.657 6.128 122.113 6.032 121.521 6.032C120.769 6.032 120.073 6.256 119.433 6.704C118.793 7.152 118.281 7.768 117.897 8.552C117.513 9.32 117.321 10.208 117.321 11.216C117.321 12.224 117.521 13.12 117.921 13.904C118.337 14.688 118.881 15.304 119.553 15.752C120.225 16.2 120.969 16.424 121.785 16.424C122.377 16.424 122.921 16.344 123.417 16.184C123.929 16.008 124.449 15.744 124.977 15.392L125.097 14.024C125.097 13.896 125.201 13.832 125.409 13.832C125.473 13.832 125.553 13.848 125.649 13.88C125.745 13.896 125.785 13.944 125.769 14.024C125.721 14.264 125.689 14.568 125.673 14.936C125.657 15.304 125.641 15.68 125.625 16.064C125.625 16.432 125.625 16.76 125.625 17.048C125.625 17.096 125.577 17.128 125.481 17.144C125.401 17.176 125.329 17.192 125.265 17.192C125.073 17.192 124.977 17.144 124.977 17.048V16.64C123.873 17.088 122.777 17.312 121.689 17.312C120.409 17.312 119.257 17.08 118.233 16.616C117.209 16.152 116.401 15.496 115.809 14.648C115.217 13.8 114.921 12.792 114.921 11.624ZM133.818 14.432C133.818 15.104 133.866 15.576 133.962 15.848C134.058 16.12 134.17 16.256 134.298 16.256H135.498C135.546 16.256 135.586 16.296 135.618 16.376C135.666 16.456 135.69 16.552 135.69 16.664C135.69 16.744 135.674 16.824 135.642 16.904C135.626 16.968 135.594 17 135.546 17C135.258 17 134.882 17 134.418 17C133.954 16.984 133.402 16.976 132.762 16.976C131.994 16.976 131.45 16.984 131.13 17C130.81 17.032 130.554 17.048 130.362 17.048C130.298 17.048 130.25 17 130.218 16.904C130.202 16.808 130.194 16.728 130.194 16.664C130.194 16.584 130.202 16.512 130.218 16.448C130.25 16.368 130.29 16.328 130.338 16.328H131.418C131.594 16.328 131.698 16.288 131.73 16.208C131.762 16.128 131.778 15.936 131.778 15.632V8.336C131.778 7.696 131.738 7.224 131.658 6.92C131.578 6.616 131.474 6.448 131.346 6.416C130.738 6.416 130.194 6.432 129.714 6.464C129.25 6.496 128.826 6.56 128.442 6.656C128.234 6.72 128.074 6.896 127.962 7.184C127.85 7.472 127.77 7.728 127.722 7.952C127.722 8.016 127.682 8.064 127.602 8.096C127.538 8.112 127.474 8.12 127.41 8.12C127.346 8.12 127.266 8.112 127.17 8.096C127.09 8.064 127.058 8.016 127.074 7.952C127.122 7.584 127.154 7.128 127.17 6.584C127.186 6.024 127.194 5.528 127.194 5.096C127.194 5.064 127.242 5.032 127.338 5C127.434 4.968 127.514 4.952 127.578 4.952C127.626 4.952 127.682 4.968 127.746 5C127.81 5.016 127.842 5.048 127.842 5.096V5.408C127.97 5.408 128.202 5.416 128.538 5.432C128.874 5.432 129.258 5.44 129.69 5.456C130.138 5.456 130.57 5.456 130.986 5.456H132.762C132.954 5.456 133.282 5.456 133.746 5.456C134.226 5.456 134.738 5.456 135.282 5.456C135.826 5.44 136.314 5.432 136.746 5.432C137.194 5.416 137.498 5.408 137.658 5.408H137.73V5.096C137.73 5.048 137.762 5.016 137.826 5C137.89 4.968 137.946 4.952 137.994 4.952C138.074 4.952 138.154 4.968 138.234 5C138.33 5.032 138.378 5.064 138.378 5.096C138.378 5.528 138.386 6.024 138.402 6.584C138.418 7.128 138.45 7.584 138.498 7.952C138.514 8.016 138.482 8.064 138.402 8.096C138.322 8.112 138.242 8.12 138.162 8.12C138.098 8.12 138.026 8.112 137.946 8.096C137.882 8.064 137.85 8.016 137.85 7.952C137.802 7.728 137.722 7.472 137.61 7.184C137.514 6.896 137.354 6.72 137.13 6.656C136.762 6.576 136.354 6.52 135.906 6.488C135.474 6.456 135.01 6.432 134.514 6.416H134.058C133.898 6.432 133.818 6.56 133.818 6.8V14.432Z" fill="black"/>
</svg>
