<svg width="370" height="46" viewBox="0 0 370 46" fill="none" xmlns="http://www.w3.org/2000/svg">
<path d="M17.992 1.056C23.3253 1.056 27.9333 1.97333 31.816 3.808C35.7413 5.6 38.7493 8.11733 40.84 11.36C42.9733 14.56 44.04 18.2933 44.04 22.56C44.04 25.888 43.4 28.8747 42.12 31.52C40.8827 34.1653 39.1333 36.4267 36.872 38.304C34.6107 40.1387 31.9653 41.5467 28.936 42.528C25.9493 43.5093 22.7067 44 19.208 44H11.72C8.98933 44 6.74933 44.0213 5 44.064C3.25067 44.1067 1.864 44.128 0.84 44.128C0.669333 44.128 0.541333 44.0213 0.456 43.808C0.370667 43.5947 0.328 43.36 0.328 43.104C0.328 42.8053 0.370667 42.5493 0.456 42.336C0.541333 42.08 0.669333 41.952 0.84 41.952H3.592C4.70133 41.952 5.40533 41.7387 5.704 41.312C6.04533 40.8853 6.216 40.1173 6.216 39.008V8.544C6.216 6.88 6.13067 5.664 5.96 4.896C5.832 4.128 5.66133 3.63733 5.448 3.424C5.27733 3.21066 5.08533 3.104 4.872 3.104H0.84C0.456 3.104 0.264 2.784 0.264 2.144C0.264 1.888 0.306667 1.632 0.392 1.376C0.52 1.07733 0.669333 0.927998 0.84 0.927998C1.352 0.927998 2.09867 0.949331 3.08 0.991997C4.06133 0.991997 5.10667 1.01333 6.216 1.056C7.368 1.056 8.392 1.056 9.288 1.056H17.992ZM19.4 41.376C22.8987 41.3333 25.9493 40.608 28.552 39.2C31.1547 37.792 33.16 35.808 34.568 33.248C36.0187 30.688 36.744 27.6587 36.744 24.16C36.744 20.32 36.0187 16.928 34.568 13.984C33.1173 10.9973 30.8133 8.608 27.656 6.816C24.5413 4.98133 20.4027 3.91467 15.24 3.616C14.472 3.57333 13.8747 3.76533 13.448 4.192C13.0213 4.576 12.808 5.25866 12.808 6.24V35.808C12.808 37.4293 12.872 38.6453 13 39.456C13.1707 40.2667 13.3627 40.8 13.576 41.056C13.7893 41.312 13.9813 41.44 14.152 41.44L19.4 41.376ZM57.9115 27.744C59.2768 27.7013 60.5782 27.6373 61.8155 27.552C63.0955 27.4667 64.1622 27.3813 65.0155 27.296C65.8688 27.168 66.3382 27.0827 66.4235 27.04L66.8715 24.352C66.9568 24.1387 67.2555 24.032 67.7675 24.032C67.8955 24.032 68.0662 24.0747 68.2795 24.16C68.4928 24.2027 68.5995 24.3093 68.5995 24.48C68.5142 25.1627 68.4502 25.824 68.4075 26.464C68.3648 27.0613 68.3435 27.7227 68.3435 28.448C68.3435 29.088 68.3648 29.792 68.4075 30.56C68.4502 31.2853 68.5142 32.0107 68.5995 32.736C68.5995 32.864 68.4715 32.9707 68.2155 33.056C68.0022 33.0987 67.7888 33.12 67.5755 33.12C67.4048 33.12 67.2342 33.0987 67.0635 33.056C66.9355 33.0133 66.8715 32.9493 66.8715 32.864L66.3595 30.112C66.2742 30.0267 65.8048 29.9413 64.9515 29.856C64.1408 29.7707 63.1168 29.6853 61.8795 29.6C60.6422 29.5147 59.3195 29.4507 57.9115 29.408V37.152C57.9115 38.944 58.0395 40.2027 58.2955 40.928C58.5515 41.6107 58.8502 41.952 59.1915 41.952H61.2395C63.2448 41.9093 65.1435 41.7173 66.9355 41.376C68.7702 41.0347 70.1142 40.5653 70.9675 39.968L71.2875 37.472C71.3302 37.344 71.4582 37.2587 71.6715 37.216C71.9275 37.1307 72.1408 37.088 72.3115 37.088C72.5248 37.088 72.7168 37.1093 72.8875 37.152C73.0582 37.1947 73.1222 37.3013 73.0795 37.472C72.9088 38.5813 72.8022 39.84 72.7595 41.248C72.7168 42.6133 72.6955 43.872 72.6955 45.024C72.6955 45.152 72.5888 45.2373 72.3755 45.28C72.2048 45.3227 72.0555 45.344 71.9275 45.344C71.7568 45.344 71.5435 45.3227 71.2875 45.28C71.0742 45.2373 70.9675 45.152 70.9675 45.024V44H59.5755C56.9728 44 54.9675 44 53.5595 44C52.1515 44.0427 51.1062 44.064 50.4235 44.064C49.7408 44.1067 49.1648 44.128 48.6955 44.128C48.5248 44.128 48.3968 44 48.3115 43.744C48.2688 43.488 48.2475 43.2747 48.2475 43.104C48.2475 42.8907 48.2688 42.6987 48.3115 42.528C48.3968 42.3147 48.5035 42.208 48.6315 42.208H51.5115C51.9808 42.208 52.2582 42.1013 52.3435 41.888C52.4288 41.6747 52.4715 41.1627 52.4715 40.352V20.192C52.4715 18.4 52.3435 17.0987 52.0875 16.288C51.8742 15.4773 51.5755 15.072 51.1915 15.072H48.8875C48.3755 15.072 48.1195 14.752 48.1195 14.112C48.1195 13.4293 48.3542 13.088 48.8235 13.088C49.6342 13.088 50.6155 13.1093 51.7675 13.152C52.9622 13.1947 54.1568 13.216 55.3515 13.216H68.5995V12.192C68.5995 12.064 68.6848 11.9787 68.8555 11.936C69.0262 11.8507 69.1968 11.808 69.3675 11.808C69.5382 11.808 69.7302 11.8507 69.9435 11.936C70.1995 11.9787 70.3275 12.064 70.3275 12.192C70.3275 13.344 70.3488 14.6027 70.3915 15.968C70.4768 17.3333 70.6048 18.4853 70.7755 19.424C70.8182 19.552 70.7542 19.6587 70.5835 19.744C70.4128 19.7867 70.2422 19.808 70.0715 19.808C69.9008 19.808 69.6662 19.7867 69.3675 19.744C69.1115 19.6587 68.9835 19.552 68.9835 19.424C68.8128 18.8267 68.5995 18.1867 68.3435 17.504C68.1302 16.8213 67.7675 16.352 67.2555 16.096C66.4448 15.7973 65.4422 15.5627 64.2475 15.392C63.0528 15.2213 61.4528 15.136 59.4475 15.136C58.8502 15.1787 58.4448 15.3707 58.2315 15.712C58.0182 16.0107 57.9115 16.5227 57.9115 17.248V27.744ZM105.515 14.752C105.045 14.752 104.704 14.944 104.491 15.328C104.064 16.0533 103.488 17.2053 102.763 18.784C102.08 20.3627 101.333 22.176 100.523 24.224C99.7545 26.272 98.9652 28.384 98.1545 30.56C97.3438 32.6933 96.5758 34.7627 95.8505 36.768C95.1252 38.7307 94.5065 40.4373 93.9945 41.888C93.5252 43.3387 93.2052 44.3413 93.0345 44.896C92.8638 45.28 92.4372 45.472 91.7545 45.472C91.1145 45.472 90.7092 45.2587 90.5385 44.832C90.3252 43.8933 89.8985 42.5707 89.2585 40.864C88.6185 39.1573 87.8718 37.2373 87.0185 35.104C86.1652 32.9707 85.2692 30.7947 84.3305 28.576C83.3918 26.3573 82.4745 24.2667 81.5785 22.304C80.7252 20.2987 79.9785 18.6133 79.3385 17.248C78.8265 16.1813 78.3572 15.52 77.9305 15.264C77.5038 14.9653 76.8425 14.816 75.9465 14.816C75.6905 14.816 75.5625 14.56 75.5625 14.048C75.5625 13.8347 75.5838 13.6213 75.6265 13.408C75.7118 13.1947 75.8185 13.088 75.9465 13.088C77.1412 13.088 78.1652 13.1093 79.0185 13.152C79.8718 13.1947 80.8745 13.216 82.0265 13.216C82.8372 13.216 83.8185 13.1947 84.9705 13.152C86.1652 13.1093 87.4878 13.088 88.9385 13.088C89.1092 13.088 89.2158 13.1733 89.2585 13.344C89.3012 13.5147 89.3225 13.7067 89.3225 13.92C89.3225 14.4747 89.1945 14.752 88.9385 14.752H85.8665C85.3972 14.752 85.1625 14.944 85.1625 15.328C85.1625 15.4987 85.3545 16.16 85.7385 17.312C86.1652 18.4213 86.6985 19.8507 87.3385 21.6C87.9785 23.3067 88.6612 25.1627 89.3865 27.168C90.1118 29.1733 90.8158 31.136 91.4985 33.056C92.1812 34.9333 92.7572 36.576 93.2265 37.984C94.2078 34.656 95.2318 31.4773 96.2985 28.448C97.3652 25.4187 98.2612 22.816 98.9865 20.64C99.7545 18.4213 100.139 16.9067 100.139 16.096C100.139 15.584 100.053 15.2427 99.8825 15.072C99.7545 14.9013 99.5838 14.816 99.3705 14.816H96.7465C96.4052 14.816 96.2345 14.56 96.2345 14.048C96.2345 13.8347 96.2558 13.6213 96.2985 13.408C96.3838 13.1947 96.4905 13.088 96.6185 13.088C97.6852 13.088 98.5172 13.1093 99.1145 13.152C99.7545 13.152 100.309 13.1733 100.779 13.216C101.291 13.216 101.867 13.216 102.507 13.216C103.275 13.216 103.979 13.1947 104.619 13.152C105.259 13.1093 106.112 13.088 107.179 13.088C107.349 13.088 107.456 13.1733 107.499 13.344C107.584 13.5147 107.627 13.7067 107.627 13.92C107.627 14.4747 107.477 14.752 107.179 14.752H105.515ZM110.569 23.968C110.569 20.128 111.294 16.736 112.745 13.792C114.238 10.848 116.222 8.37333 118.697 6.368C121.214 4.32 124.03 2.784 127.145 1.76C130.302 0.735999 133.566 0.223999 136.937 0.223999C138.942 0.223999 140.82 0.458665 142.569 0.927998C144.318 1.39733 145.876 1.99466 147.241 2.72V1.248C147.241 1.03466 147.348 0.885331 147.561 0.799999C147.774 0.714664 148.009 0.671997 148.265 0.671997C148.82 0.671997 149.097 0.863997 149.097 1.248C149.097 2.82666 149.14 4.42666 149.225 6.048C149.353 7.66933 149.524 9.22667 149.737 10.72C149.78 10.9333 149.694 11.104 149.481 11.232C149.268 11.3173 149.012 11.36 148.713 11.36C148.457 11.36 148.222 11.3173 148.009 11.232C147.796 11.104 147.668 10.9333 147.625 10.72L147.113 7.712C145.364 6.09067 143.529 4.91733 141.609 4.192C139.689 3.46666 137.662 3.104 135.529 3.104C132.5 3.104 129.684 3.82933 127.081 5.28C124.478 6.73066 122.388 8.88533 120.809 11.744C119.273 14.6027 118.505 18.1867 118.505 22.496C118.505 26.848 119.337 30.4747 121.001 33.376C122.665 36.2347 124.862 38.3893 127.593 39.84C130.324 41.248 133.31 41.952 136.553 41.952C140.734 41.952 144.702 40.672 148.457 38.112L148.841 35.104C148.926 34.6347 149.31 34.4 149.993 34.4C150.249 34.4 150.484 34.464 150.697 34.592C150.91 34.72 150.996 34.8907 150.953 35.104C150.74 36.2133 150.59 37.5573 150.505 39.136C150.462 40.672 150.441 42.2507 150.441 43.872C150.441 44.2133 150.121 44.384 149.481 44.384C149.225 44.384 148.99 44.3413 148.777 44.256C148.564 44.1707 148.457 44.0427 148.457 43.872V42.336C144.318 44 140.222 44.832 136.169 44.832C132.67 44.832 129.364 44.384 126.249 43.488C123.177 42.592 120.446 41.2693 118.057 39.52C115.71 37.728 113.876 35.5307 112.553 32.928C111.23 30.3253 110.569 27.3387 110.569 23.968ZM173.709 12.384C175.97 12.384 178.125 12.8107 180.173 13.664C182.264 14.5173 184.098 15.6907 185.677 17.184C187.298 18.6773 188.557 20.4053 189.453 22.368C190.392 24.288 190.861 26.336 190.861 28.512C190.861 30.7307 190.392 32.8213 189.453 34.784C188.557 36.7467 187.298 38.496 185.677 40.032C184.098 41.5253 182.264 42.6987 180.173 43.552C178.125 44.4053 175.97 44.832 173.709 44.832C171.448 44.832 169.272 44.4053 167.181 43.552C165.133 42.6987 163.298 41.5253 161.677 40.032C160.098 38.496 158.84 36.7467 157.901 34.784C157.005 32.8213 156.557 30.7307 156.557 28.512C156.557 26.336 157.005 24.288 157.901 22.368C158.84 20.4053 160.098 18.6773 161.677 17.184C163.298 15.6907 165.133 14.5173 167.181 13.664C169.272 12.8107 171.448 12.384 173.709 12.384ZM173.709 14.688C171.533 14.688 169.634 15.328 168.013 16.608C166.434 17.8453 165.197 19.5093 164.301 21.6C163.405 23.6907 162.957 25.9947 162.957 28.512C162.957 31.0293 163.405 33.3547 164.301 35.488C165.197 37.6213 166.434 39.328 168.013 40.608C169.634 41.888 171.533 42.528 173.709 42.528C175.885 42.528 177.762 41.888 179.341 40.608C180.962 39.328 182.221 37.6213 183.117 35.488C184.013 33.3547 184.461 31.0293 184.461 28.512C184.461 25.9947 184.013 23.6907 183.117 21.6C182.221 19.5093 180.962 17.8453 179.341 16.608C177.762 15.328 175.885 14.688 173.709 14.688ZM224.033 44.384C224.033 44.384 223.563 43.8507 222.625 42.784C221.729 41.6747 220.534 40.224 219.041 38.432C217.547 36.64 215.883 34.656 214.049 32.48C212.214 30.304 210.379 28.1067 208.545 25.888C206.71 23.6267 205.003 21.5573 203.425 19.68H203.233C203.318 24.1173 203.382 27.8293 203.425 30.816C203.51 33.8027 203.574 36.4053 203.617 38.624C203.617 39.4347 203.702 40.2027 203.873 40.928C204.043 41.6107 204.278 41.952 204.577 41.952H207.137C207.265 41.952 207.35 42.1013 207.393 42.4C207.478 42.6987 207.521 42.976 207.521 43.232C207.521 43.4027 207.499 43.5733 207.457 43.744C207.414 43.872 207.307 43.936 207.137 43.936H201.825C200.801 43.936 199.734 43.9573 198.625 44C197.515 44.0427 196.641 44.064 196.001 44.064C195.915 44.064 195.83 43.9787 195.745 43.808C195.702 43.6373 195.681 43.4667 195.681 43.296C195.681 43.0827 195.702 42.848 195.745 42.592C195.83 42.336 195.915 42.208 196.001 42.208H197.536C198.262 42.208 198.774 42.1227 199.073 41.952C199.371 41.7813 199.542 41.44 199.585 40.928C199.713 39.392 199.841 37.6 199.969 35.552C200.097 33.504 200.203 31.3707 200.289 29.152C200.374 26.9333 200.438 24.7573 200.481 22.624C200.523 20.448 200.545 18.464 200.545 16.672L200.225 16.288C199.713 15.6907 199.201 15.3493 198.689 15.264C198.219 15.136 197.387 15.072 196.193 15.072C195.937 15.072 195.809 14.7307 195.809 14.048C195.809 13.408 195.937 13.088 196.193 13.088C196.747 13.088 197.601 13.1093 198.753 13.152C199.947 13.152 201.163 13.1733 202.401 13.216C203.638 13.216 204.577 13.216 205.217 13.216C205.217 13.216 205.601 13.7067 206.369 14.688C207.137 15.6267 208.118 16.8853 209.312 18.464C210.55 20 211.894 21.6853 213.345 23.52C214.795 25.3547 216.203 27.168 217.569 28.96C218.934 30.7093 220.15 32.2667 221.217 33.632C222.283 34.9973 223.051 35.9787 223.521 36.576H223.649C223.606 32.2667 223.563 28.4907 223.521 25.248C223.478 21.9627 223.371 19.2107 223.201 16.992C223.073 15.712 222.731 15.072 222.177 15.072H219.937C219.766 15.072 219.638 14.9653 219.553 14.752C219.51 14.496 219.489 14.24 219.489 13.984C219.489 13.7707 219.531 13.5787 219.617 13.408C219.702 13.1947 219.809 13.088 219.937 13.088C220.577 13.088 221.43 13.1093 222.497 13.152C223.563 13.1947 224.481 13.216 225.249 13.216C226.145 13.216 227.147 13.1947 228.257 13.152C229.366 13.1093 230.326 13.088 231.137 13.088C231.222 13.088 231.307 13.1947 231.393 13.408C231.478 13.5787 231.521 13.7707 231.521 13.984C231.521 14.624 231.393 14.944 231.137 14.944H228.897C228.257 14.944 227.851 15.1147 227.681 15.456C227.51 15.7973 227.382 16.3307 227.297 17.056C227.169 18.2507 227.041 20.2347 226.913 23.008C226.827 25.7387 226.742 28.9387 226.657 32.608C226.614 36.2773 226.593 40.1387 226.593 44.192C226.593 44.6187 226.209 44.832 225.441 44.832C224.801 44.832 224.331 44.6827 224.033 44.384ZM264.22 44.384C264.22 44.384 263.751 43.8507 262.812 42.784C261.916 41.6747 260.721 40.224 259.228 38.432C257.735 36.64 256.071 34.656 254.236 32.48C252.401 30.304 250.567 28.1067 248.732 25.888C246.897 23.6267 245.191 21.5573 243.612 19.68H243.42C243.505 24.1173 243.569 27.8293 243.612 30.816C243.697 33.8027 243.761 36.4053 243.804 38.624C243.804 39.4347 243.889 40.2027 244.06 40.928C244.231 41.6107 244.465 41.952 244.764 41.952H247.324C247.452 41.952 247.537 42.1013 247.58 42.4C247.665 42.6987 247.708 42.976 247.708 43.232C247.708 43.4027 247.687 43.5733 247.644 43.744C247.601 43.872 247.495 43.936 247.324 43.936H242.012C240.988 43.936 239.921 43.9573 238.812 44C237.703 44.0427 236.828 44.064 236.188 44.064C236.103 44.064 236.017 43.9787 235.932 43.808C235.889 43.6373 235.868 43.4667 235.868 43.296C235.868 43.0827 235.889 42.848 235.932 42.592C236.017 42.336 236.103 42.208 236.188 42.208H237.724C238.449 42.208 238.961 42.1227 239.26 41.952C239.559 41.7813 239.729 41.44 239.772 40.928C239.9 39.392 240.028 37.6 240.156 35.552C240.284 33.504 240.391 31.3707 240.476 29.152C240.561 26.9333 240.625 24.7573 240.668 22.624C240.711 20.448 240.732 18.464 240.732 16.672L240.412 16.288C239.9 15.6907 239.388 15.3493 238.876 15.264C238.407 15.136 237.575 15.072 236.38 15.072C236.124 15.072 235.996 14.7307 235.996 14.048C235.996 13.408 236.124 13.088 236.38 13.088C236.935 13.088 237.788 13.1093 238.94 13.152C240.135 13.152 241.351 13.1733 242.588 13.216C243.825 13.216 244.764 13.216 245.404 13.216C245.404 13.216 245.788 13.7067 246.556 14.688C247.324 15.6267 248.305 16.8853 249.5 18.464C250.737 20 252.081 21.6853 253.532 23.52C254.983 25.3547 256.391 27.168 257.756 28.96C259.121 30.7093 260.337 32.2667 261.404 33.632C262.471 34.9973 263.239 35.9787 263.708 36.576H263.836C263.793 32.2667 263.751 28.4907 263.708 25.248C263.665 21.9627 263.559 19.2107 263.388 16.992C263.26 15.712 262.919 15.072 262.364 15.072H260.124C259.953 15.072 259.825 14.9653 259.74 14.752C259.697 14.496 259.676 14.24 259.676 13.984C259.676 13.7707 259.719 13.5787 259.804 13.408C259.889 13.1947 259.996 13.088 260.124 13.088C260.764 13.088 261.617 13.1093 262.684 13.152C263.751 13.1947 264.668 13.216 265.436 13.216C266.332 13.216 267.335 13.1947 268.444 13.152C269.553 13.1093 270.513 13.088 271.324 13.088C271.409 13.088 271.495 13.1947 271.58 13.408C271.665 13.5787 271.708 13.7707 271.708 13.984C271.708 14.624 271.58 14.944 271.324 14.944H269.084C268.444 14.944 268.039 15.1147 267.868 15.456C267.697 15.7973 267.569 16.3307 267.484 17.056C267.356 18.2507 267.228 20.2347 267.1 23.008C267.015 25.7387 266.929 28.9387 266.844 32.608C266.801 36.2773 266.78 40.1387 266.78 44.192C266.78 44.6187 266.396 44.832 265.628 44.832C264.988 44.832 264.519 44.6827 264.22 44.384ZM285.912 27.744C287.277 27.7013 288.578 27.6373 289.816 27.552C291.096 27.4667 292.162 27.3813 293.016 27.296C293.869 27.168 294.338 27.0827 294.424 27.04L294.872 24.352C294.957 24.1387 295.256 24.032 295.768 24.032C295.896 24.032 296.066 24.0747 296.28 24.16C296.493 24.2027 296.6 24.3093 296.6 24.48C296.514 25.1627 296.45 25.824 296.408 26.464C296.365 27.0613 296.344 27.7227 296.344 28.448C296.344 29.088 296.365 29.792 296.408 30.56C296.45 31.2853 296.514 32.0107 296.6 32.736C296.6 32.864 296.472 32.9707 296.216 33.056C296.002 33.0987 295.789 33.12 295.576 33.12C295.405 33.12 295.234 33.0987 295.064 33.056C294.936 33.0133 294.872 32.9493 294.872 32.864L294.36 30.112C294.274 30.0267 293.805 29.9413 292.952 29.856C292.141 29.7707 291.117 29.6853 289.88 29.6C288.642 29.5147 287.32 29.4507 285.912 29.408V37.152C285.912 38.944 286.04 40.2027 286.296 40.928C286.552 41.6107 286.85 41.952 287.192 41.952H289.24C291.245 41.9093 293.144 41.7173 294.936 41.376C296.77 41.0347 298.114 40.5653 298.968 39.968L299.288 37.472C299.33 37.344 299.458 37.2587 299.672 37.216C299.928 37.1307 300.141 37.088 300.312 37.088C300.525 37.088 300.717 37.1093 300.888 37.152C301.058 37.1947 301.122 37.3013 301.08 37.472C300.909 38.5813 300.802 39.84 300.76 41.248C300.717 42.6133 300.696 43.872 300.696 45.024C300.696 45.152 300.589 45.2373 300.376 45.28C300.205 45.3227 300.056 45.344 299.928 45.344C299.757 45.344 299.544 45.3227 299.288 45.28C299.074 45.2373 298.968 45.152 298.968 45.024V44H287.576C284.973 44 282.968 44 281.56 44C280.152 44.0427 279.106 44.064 278.424 44.064C277.741 44.1067 277.165 44.128 276.696 44.128C276.525 44.128 276.397 44 276.312 43.744C276.269 43.488 276.248 43.2747 276.248 43.104C276.248 42.8907 276.269 42.6987 276.312 42.528C276.397 42.3147 276.504 42.208 276.632 42.208H279.512C279.981 42.208 280.258 42.1013 280.344 41.888C280.429 41.6747 280.472 41.1627 280.472 40.352V20.192C280.472 18.4 280.344 17.0987 280.088 16.288C279.874 15.4773 279.576 15.072 279.192 15.072H276.888C276.376 15.072 276.12 14.752 276.12 14.112C276.12 13.4293 276.354 13.088 276.824 13.088C277.634 13.088 278.616 13.1093 279.768 13.152C280.962 13.1947 282.157 13.216 283.352 13.216H296.6V12.192C296.6 12.064 296.685 11.9787 296.856 11.936C297.026 11.8507 297.197 11.808 297.368 11.808C297.538 11.808 297.73 11.8507 297.944 11.936C298.2 11.9787 298.328 12.064 298.328 12.192C298.328 13.344 298.349 14.6027 298.392 15.968C298.477 17.3333 298.605 18.4853 298.776 19.424C298.818 19.552 298.754 19.6587 298.584 19.744C298.413 19.7867 298.242 19.808 298.072 19.808C297.901 19.808 297.666 19.7867 297.368 19.744C297.112 19.6587 296.984 19.552 296.984 19.424C296.813 18.8267 296.6 18.1867 296.344 17.504C296.13 16.8213 295.768 16.352 295.256 16.096C294.445 15.7973 293.442 15.5627 292.248 15.392C291.053 15.2213 289.453 15.136 287.448 15.136C286.85 15.1787 286.445 15.3707 286.232 15.712C286.018 16.0107 285.912 16.5227 285.912 17.248V27.744ZM306.123 29.664C306.123 27.0187 306.613 24.6507 307.595 22.56C308.619 20.4267 310.005 18.6133 311.755 17.12C313.504 15.584 315.488 14.4107 317.707 13.6C319.968 12.7893 322.315 12.384 324.747 12.384C326.197 12.384 327.52 12.576 328.715 12.96C329.952 13.3013 331.061 13.728 332.043 14.24V13.152C332.043 12.8533 332.299 12.704 332.811 12.704C332.981 12.704 333.152 12.7467 333.323 12.832C333.536 12.8747 333.643 12.9813 333.643 13.152C333.643 14.304 333.707 15.712 333.835 17.376C333.963 19.04 334.112 20.4267 334.283 21.536C334.325 21.7067 334.24 21.8347 334.027 21.92C333.856 22.0053 333.664 22.048 333.451 22.048C333.28 22.048 333.088 22.0053 332.875 21.92C332.661 21.8347 332.533 21.7067 332.491 21.536L331.979 18.144C330.699 16.9067 329.397 16.032 328.075 15.52C326.752 15.008 325.301 14.752 323.723 14.752C321.717 14.752 319.861 15.3493 318.155 16.544C316.448 17.7387 315.083 19.3813 314.059 21.472C313.035 23.52 312.523 25.888 312.523 28.576C312.523 31.264 313.056 33.6533 314.123 35.744C315.232 37.8347 316.683 39.4773 318.475 40.672C320.267 41.8667 322.251 42.464 324.427 42.464C326.005 42.464 327.456 42.2507 328.779 41.824C330.144 41.3547 331.531 40.6507 332.939 39.712L333.259 36.064C333.259 35.7227 333.536 35.552 334.091 35.552C334.261 35.552 334.475 35.5947 334.731 35.68C334.987 35.7227 335.093 35.8507 335.051 36.064C334.923 36.704 334.837 37.5147 334.795 38.496C334.752 39.4773 334.709 40.48 334.667 41.504C334.667 42.4853 334.667 43.36 334.667 44.128C334.667 44.256 334.539 44.3413 334.283 44.384C334.069 44.4693 333.877 44.512 333.707 44.512C333.195 44.512 332.939 44.384 332.939 44.128V43.04C329.995 44.2347 327.072 44.832 324.171 44.832C320.757 44.832 317.685 44.2133 314.955 42.976C312.224 41.7387 310.069 39.9893 308.491 37.728C306.912 35.4667 306.123 32.7787 306.123 29.664ZM356.516 37.152C356.516 38.944 356.644 40.2027 356.9 40.928C357.156 41.6533 357.454 42.016 357.796 42.016H360.996C361.124 42.016 361.23 42.1227 361.316 42.336C361.444 42.5493 361.508 42.8053 361.508 43.104C361.508 43.3173 361.465 43.5307 361.38 43.744C361.337 43.9147 361.252 44 361.124 44C360.356 44 359.353 44 358.116 44C356.878 43.9573 355.406 43.936 353.7 43.936C351.652 43.936 350.201 43.9573 349.348 44C348.494 44.0853 347.812 44.128 347.3 44.128C347.129 44.128 347.001 44 346.916 43.744C346.873 43.488 346.852 43.2747 346.852 43.104C346.852 42.8907 346.873 42.6987 346.916 42.528C347.001 42.3147 347.108 42.208 347.236 42.208H350.116C350.585 42.208 350.862 42.1013 350.948 41.888C351.033 41.6747 351.076 41.1627 351.076 40.352V20.896C351.076 19.1893 350.969 17.9307 350.756 17.12C350.542 16.3093 350.265 15.8613 349.924 15.776C348.302 15.776 346.852 15.8187 345.572 15.904C344.334 15.9893 343.204 16.16 342.18 16.416C341.625 16.5867 341.198 17.056 340.9 17.824C340.601 18.592 340.388 19.2747 340.26 19.872C340.26 20.0427 340.153 20.1707 339.94 20.256C339.769 20.2987 339.598 20.32 339.428 20.32C339.257 20.32 339.044 20.2987 338.788 20.256C338.574 20.1707 338.489 20.0427 338.532 19.872C338.66 18.8907 338.745 17.6747 338.788 16.224C338.83 14.7307 338.852 13.408 338.852 12.256C338.852 12.1707 338.98 12.0853 339.236 12C339.492 11.9147 339.705 11.872 339.876 11.872C340.004 11.872 340.153 11.9147 340.324 12C340.494 12.0427 340.58 12.128 340.58 12.256V13.088C340.921 13.088 341.54 13.1093 342.436 13.152C343.332 13.152 344.356 13.1733 345.508 13.216C346.702 13.216 347.854 13.216 348.964 13.216H353.7C354.212 13.216 355.086 13.216 356.324 13.216C357.604 13.216 358.969 13.216 360.42 13.216C361.87 13.1733 363.172 13.152 364.324 13.152C365.518 13.1093 366.329 13.088 366.756 13.088H366.948V12.256C366.948 12.128 367.033 12.0427 367.204 12C367.374 11.9147 367.524 11.872 367.652 11.872C367.865 11.872 368.078 11.9147 368.292 12C368.548 12.0853 368.676 12.1707 368.676 12.256C368.676 13.408 368.697 14.7307 368.74 16.224C368.782 17.6747 368.868 18.8907 368.996 19.872C369.038 20.0427 368.953 20.1707 368.74 20.256C368.526 20.2987 368.313 20.32 368.1 20.32C367.929 20.32 367.737 20.2987 367.524 20.256C367.353 20.1707 367.268 20.0427 367.268 19.872C367.14 19.2747 366.926 18.592 366.628 17.824C366.372 17.056 365.945 16.5867 365.348 16.416C364.366 16.2027 363.278 16.0533 362.084 15.968C360.932 15.8827 359.694 15.8187 358.372 15.776H357.156C356.729 15.8187 356.516 16.16 356.516 16.8V37.152Z" fill="black"/>
</svg>
