<svg width="209" height="26" viewBox="0 0 209 26" fill="none" xmlns="http://www.w3.org/2000/svg">
<path d="M10.808 0.844C13.808 0.844 16.4 1.36 18.584 2.392C20.792 3.4 22.484 4.816 23.66 6.64C24.86 8.44 25.46 10.54 25.46 12.94C25.46 14.812 25.1 16.492 24.38 17.98C23.684 19.468 22.7 20.74 21.428 21.796C20.156 22.828 18.668 23.62 16.964 24.172C15.284 24.724 13.46 25 11.492 25H7.28C5.744 25 4.484 25.012 3.5 25.036C2.516 25.06 1.736 25.072 1.16 25.072C1.064 25.072 0.992 25.012 0.944 24.892C0.896 24.772 0.872 24.64 0.872 24.496C0.872 24.328 0.896 24.184 0.944 24.064C0.992 23.92 1.064 23.848 1.16 23.848H2.708C3.332 23.848 3.728 23.728 3.896 23.488C4.088 23.248 4.184 22.816 4.184 22.192V5.056C4.184 4.12 4.136 3.436 4.04 3.004C3.968 2.572 3.872 2.296 3.752 2.176C3.656 2.056 3.548 1.996 3.428 1.996H1.16C0.944 1.996 0.836 1.816 0.836 1.456C0.836 1.312 0.86 1.168 0.908 1.024C0.98 0.855999 1.064 0.771999 1.16 0.771999C1.448 0.771999 1.868 0.783998 2.42 0.807998C2.972 0.807998 3.56 0.819999 4.184 0.844C4.832 0.844 5.408 0.844 5.912 0.844H10.808ZM11.6 23.524C13.568 23.5 15.284 23.092 16.748 22.3C18.212 21.508 19.34 20.392 20.132 18.952C20.948 17.512 21.356 15.808 21.356 13.84C21.356 11.68 20.948 9.772 20.132 8.116C19.316 6.436 18.02 5.092 16.244 4.084C14.492 3.052 12.164 2.452 9.26 2.284C8.828 2.26 8.492 2.368 8.252 2.608C8.012 2.824 7.892 3.208 7.892 3.76V20.392C7.892 21.304 7.928 21.988 8 22.444C8.096 22.9 8.204 23.2 8.324 23.344C8.444 23.488 8.552 23.56 8.648 23.56L11.6 23.524ZM33.2627 15.856C34.0307 15.832 34.7627 15.796 35.4587 15.748C36.1787 15.7 36.7787 15.652 37.2587 15.604C37.7387 15.532 38.0027 15.484 38.0507 15.46L38.3027 13.948C38.3507 13.828 38.5187 13.768 38.8067 13.768C38.8787 13.768 38.9747 13.792 39.0947 13.84C39.2147 13.864 39.2747 13.924 39.2747 14.02C39.2267 14.404 39.1907 14.776 39.1667 15.136C39.1427 15.472 39.1307 15.844 39.1307 16.252C39.1307 16.612 39.1427 17.008 39.1667 17.44C39.1907 17.848 39.2267 18.256 39.2747 18.664C39.2747 18.736 39.2027 18.796 39.0587 18.844C38.9387 18.868 38.8187 18.88 38.6987 18.88C38.6027 18.88 38.5067 18.868 38.4107 18.844C38.3387 18.82 38.3027 18.784 38.3027 18.736L38.0147 17.188C37.9667 17.14 37.7027 17.092 37.2227 17.044C36.7667 16.996 36.1907 16.948 35.4947 16.9C34.7987 16.852 34.0547 16.816 33.2627 16.792V21.148C33.2627 22.156 33.3347 22.864 33.4787 23.272C33.6227 23.656 33.7907 23.848 33.9827 23.848H35.1347C36.2627 23.824 37.3307 23.716 38.3387 23.524C39.3707 23.332 40.1267 23.068 40.6067 22.732L40.7867 21.328C40.8107 21.256 40.8827 21.208 41.0027 21.184C41.1467 21.136 41.2667 21.112 41.3627 21.112C41.4827 21.112 41.5907 21.124 41.6867 21.148C41.7827 21.172 41.8187 21.232 41.7947 21.328C41.6987 21.952 41.6387 22.66 41.6147 23.452C41.5907 24.22 41.5787 24.928 41.5787 25.576C41.5787 25.648 41.5187 25.696 41.3987 25.72C41.3027 25.744 41.2187 25.756 41.1467 25.756C41.0507 25.756 40.9307 25.744 40.7867 25.72C40.6667 25.696 40.6067 25.648 40.6067 25.576V25H34.1987C32.7347 25 31.6067 25 30.8147 25C30.0227 25.024 29.4347 25.036 29.0507 25.036C28.6667 25.06 28.3427 25.072 28.0787 25.072C27.9827 25.072 27.9107 25 27.8627 24.856C27.8387 24.712 27.8267 24.592 27.8267 24.496C27.8267 24.376 27.8387 24.268 27.8627 24.172C27.9107 24.052 27.9707 23.992 28.0427 23.992H29.6627C29.9267 23.992 30.0827 23.932 30.1307 23.812C30.1787 23.692 30.2027 23.404 30.2027 22.948V11.608C30.2027 10.6 30.1307 9.868 29.9867 9.412C29.8667 8.956 29.6987 8.728 29.4827 8.728H28.1867C27.8987 8.728 27.7547 8.548 27.7547 8.188C27.7547 7.804 27.8867 7.612 28.1507 7.612C28.6067 7.612 29.1587 7.624 29.8067 7.648C30.4787 7.672 31.1507 7.684 31.8227 7.684H39.2747V7.108C39.2747 7.036 39.3227 6.988 39.4187 6.964C39.5147 6.916 39.6107 6.892 39.7067 6.892C39.8027 6.892 39.9107 6.916 40.0307 6.964C40.1747 6.988 40.2467 7.036 40.2467 7.108C40.2467 7.756 40.2587 8.464 40.2827 9.232C40.3307 10 40.4027 10.648 40.4987 11.176C40.5227 11.248 40.4867 11.308 40.3907 11.356C40.2947 11.38 40.1987 11.392 40.1027 11.392C40.0067 11.392 39.8747 11.38 39.7067 11.356C39.5627 11.308 39.4907 11.248 39.4907 11.176C39.3947 10.84 39.2747 10.48 39.1307 10.096C39.0107 9.712 38.8067 9.448 38.5187 9.304C38.0627 9.136 37.4987 9.004 36.8267 8.908C36.1547 8.812 35.2547 8.764 34.1267 8.764C33.7907 8.788 33.5627 8.896 33.4427 9.088C33.3227 9.256 33.2627 9.544 33.2627 9.952V15.856ZM60.0394 8.548C59.7754 8.548 59.5834 8.656 59.4634 8.872C59.2234 9.28 58.8994 9.928 58.4914 10.816C58.1074 11.704 57.6874 12.724 57.2314 13.876C56.7994 15.028 56.3554 16.216 55.8994 17.44C55.4434 18.64 55.0114 19.804 54.6034 20.932C54.1954 22.036 53.8474 22.996 53.5594 23.812C53.2954 24.628 53.1154 25.192 53.0194 25.504C52.9234 25.72 52.6834 25.828 52.2994 25.828C51.9394 25.828 51.7114 25.708 51.6154 25.468C51.4954 24.94 51.2554 24.196 50.8954 23.236C50.5354 22.276 50.1154 21.196 49.6354 19.996C49.1554 18.796 48.6514 17.572 48.1234 16.324C47.5954 15.076 47.0794 13.9 46.5754 12.796C46.0954 11.668 45.6754 10.72 45.3154 9.952C45.0274 9.352 44.7634 8.98 44.5234 8.836C44.2834 8.668 43.9114 8.584 43.4074 8.584C43.2634 8.584 43.1914 8.44 43.1914 8.152C43.1914 8.032 43.2034 7.912 43.2274 7.792C43.2754 7.672 43.3354 7.612 43.4074 7.612C44.0794 7.612 44.6554 7.624 45.1354 7.648C45.6154 7.672 46.1794 7.684 46.8274 7.684C47.2834 7.684 47.8354 7.672 48.4834 7.648C49.1554 7.624 49.8994 7.612 50.7154 7.612C50.8114 7.612 50.8714 7.66 50.8954 7.756C50.9194 7.852 50.9314 7.96 50.9314 8.08C50.9314 8.392 50.8594 8.548 50.7154 8.548H48.9874C48.7234 8.548 48.5914 8.656 48.5914 8.872C48.5914 8.968 48.6994 9.34 48.9154 9.988C49.1554 10.612 49.4554 11.416 49.8154 12.4C50.1754 13.36 50.5594 14.404 50.9674 15.532C51.3754 16.66 51.7714 17.764 52.1554 18.844C52.5394 19.9 52.8634 20.824 53.1274 21.616C53.6794 19.744 54.2554 17.956 54.8554 16.252C55.4554 14.548 55.9594 13.084 56.3674 11.86C56.7994 10.612 57.0154 9.76 57.0154 9.304C57.0154 9.016 56.9674 8.824 56.8714 8.728C56.7994 8.632 56.7034 8.584 56.5834 8.584H55.1074C54.9154 8.584 54.8194 8.44 54.8194 8.152C54.8194 8.032 54.8314 7.912 54.8554 7.792C54.9034 7.672 54.9634 7.612 55.0354 7.612C55.6354 7.612 56.1034 7.624 56.4394 7.648C56.7994 7.648 57.1114 7.66 57.3754 7.684C57.6634 7.684 57.9874 7.684 58.3474 7.684C58.7794 7.684 59.1754 7.672 59.5354 7.648C59.8954 7.624 60.3754 7.612 60.9754 7.612C61.0714 7.612 61.1314 7.66 61.1554 7.756C61.2034 7.852 61.2274 7.96 61.2274 8.08C61.2274 8.392 61.1434 8.548 60.9754 8.548H60.0394ZM62.8826 13.732C62.8826 11.572 63.2906 9.664 64.1066 8.008C64.9466 6.352 66.0626 4.96 67.4546 3.832C68.8706 2.68 70.4546 1.816 72.2066 1.24C73.9826 0.663999 75.8186 0.375999 77.7146 0.375999C78.8426 0.375999 79.8986 0.507999 80.8826 0.771999C81.8666 1.036 82.7426 1.372 83.5106 1.78V0.951998C83.5106 0.831999 83.5706 0.747999 83.6906 0.7C83.8106 0.651999 83.9426 0.627998 84.0866 0.627998C84.3986 0.627998 84.5546 0.735998 84.5546 0.951998C84.5546 1.84 84.5786 2.74 84.6266 3.652C84.6986 4.564 84.7946 5.44 84.9146 6.28C84.9386 6.4 84.8906 6.496 84.7706 6.568C84.6506 6.616 84.5066 6.64 84.3386 6.64C84.1946 6.64 84.0626 6.616 83.9426 6.568C83.8226 6.496 83.7506 6.4 83.7266 6.28L83.4386 4.588C82.4546 3.676 81.4226 3.016 80.3426 2.608C79.2626 2.2 78.1226 1.996 76.9226 1.996C75.2186 1.996 73.6346 2.404 72.1706 3.22C70.7066 4.036 69.5306 5.248 68.6426 6.856C67.7786 8.464 67.3466 10.48 67.3466 12.904C67.3466 15.352 67.8146 17.392 68.7506 19.024C69.6866 20.632 70.9226 21.844 72.4586 22.66C73.9946 23.452 75.6746 23.848 77.4986 23.848C79.8506 23.848 82.0826 23.128 84.1946 21.688L84.4106 19.996C84.4586 19.732 84.6746 19.6 85.0586 19.6C85.2026 19.6 85.3346 19.636 85.4546 19.708C85.5746 19.78 85.6226 19.876 85.5986 19.996C85.4786 20.62 85.3946 21.376 85.3466 22.264C85.3226 23.128 85.3106 24.016 85.3106 24.928C85.3106 25.12 85.1306 25.216 84.7706 25.216C84.6266 25.216 84.4946 25.192 84.3746 25.144C84.2546 25.096 84.1946 25.024 84.1946 24.928V24.064C81.8666 25 79.5626 25.468 77.2826 25.468C75.3146 25.468 73.4546 25.216 71.7026 24.712C69.9746 24.208 68.4386 23.464 67.0946 22.48C65.7746 21.472 64.7426 20.236 63.9986 18.772C63.2546 17.308 62.8826 15.628 62.8826 13.732ZM98.3988 7.216C99.6708 7.216 100.883 7.456 102.035 7.936C103.211 8.416 104.243 9.076 105.131 9.916C106.043 10.756 106.751 11.728 107.255 12.832C107.783 13.912 108.047 15.064 108.047 16.288C108.047 17.536 107.783 18.712 107.255 19.816C106.751 20.92 106.043 21.904 105.131 22.768C104.243 23.608 103.211 24.268 102.035 24.748C100.883 25.228 99.6708 25.468 98.3988 25.468C97.1268 25.468 95.9028 25.228 94.7268 24.748C93.5748 24.268 92.5428 23.608 91.6308 22.768C90.7428 21.904 90.0348 20.92 89.5068 19.816C89.0028 18.712 88.7508 17.536 88.7508 16.288C88.7508 15.064 89.0028 13.912 89.5068 12.832C90.0348 11.728 90.7428 10.756 91.6308 9.916C92.5428 9.076 93.5748 8.416 94.7268 7.936C95.9028 7.456 97.1268 7.216 98.3988 7.216ZM98.3988 8.512C97.1748 8.512 96.1068 8.872 95.1948 9.592C94.3068 10.288 93.6108 11.224 93.1068 12.4C92.6028 13.576 92.3508 14.872 92.3508 16.288C92.3508 17.704 92.6028 19.012 93.1068 20.212C93.6108 21.412 94.3068 22.372 95.1948 23.092C96.1068 23.812 97.1748 24.172 98.3988 24.172C99.6228 24.172 100.679 23.812 101.567 23.092C102.479 22.372 103.187 21.412 103.691 20.212C104.195 19.012 104.447 17.704 104.447 16.288C104.447 14.872 104.195 13.576 103.691 12.4C103.187 11.224 102.479 10.288 101.567 9.592C100.679 8.872 99.6228 8.512 98.3988 8.512ZM126.706 25.216C126.706 25.216 126.442 24.916 125.914 24.316C125.41 23.692 124.738 22.876 123.898 21.868C123.058 20.86 122.122 19.744 121.09 18.52C120.058 17.296 119.026 16.06 117.994 14.812C116.962 13.54 116.002 12.376 115.114 11.32H115.006C115.054 13.816 115.09 15.904 115.114 17.584C115.162 19.264 115.198 20.728 115.222 21.976C115.222 22.432 115.27 22.864 115.366 23.272C115.462 23.656 115.594 23.848 115.762 23.848H117.202C117.274 23.848 117.322 23.932 117.346 24.1C117.394 24.268 117.418 24.424 117.418 24.568C117.418 24.664 117.406 24.76 117.382 24.856C117.358 24.928 117.298 24.964 117.202 24.964H114.214C113.638 24.964 113.038 24.976 112.414 25C111.79 25.024 111.298 25.036 110.938 25.036C110.89 25.036 110.842 24.988 110.794 24.892C110.77 24.796 110.758 24.7 110.758 24.604C110.758 24.484 110.77 24.352 110.794 24.208C110.842 24.064 110.89 23.992 110.938 23.992H111.802C112.21 23.992 112.498 23.944 112.666 23.848C112.834 23.752 112.93 23.56 112.954 23.272C113.026 22.408 113.098 21.4 113.17 20.248C113.242 19.096 113.302 17.896 113.35 16.648C113.398 15.4 113.434 14.176 113.458 12.976C113.482 11.752 113.494 10.636 113.494 9.628L113.314 9.412C113.026 9.076 112.738 8.884 112.45 8.836C112.186 8.764 111.718 8.728 111.046 8.728C110.902 8.728 110.83 8.536 110.83 8.152C110.83 7.792 110.902 7.612 111.046 7.612C111.358 7.612 111.838 7.624 112.486 7.648C113.158 7.648 113.842 7.66 114.538 7.684C115.234 7.684 115.762 7.684 116.122 7.684C116.122 7.684 116.338 7.96 116.77 8.512C117.202 9.04 117.754 9.748 118.426 10.636C119.122 11.5 119.878 12.448 120.694 13.48C121.51 14.512 122.302 15.532 123.07 16.54C123.838 17.524 124.522 18.4 125.122 19.168C125.722 19.936 126.154 20.488 126.418 20.824H126.49C126.466 18.4 126.442 16.276 126.418 14.452C126.394 12.604 126.334 11.056 126.238 9.808C126.166 9.088 125.974 8.728 125.662 8.728H124.402C124.306 8.728 124.234 8.668 124.186 8.548C124.162 8.404 124.15 8.26 124.15 8.116C124.15 7.996 124.174 7.888 124.222 7.792C124.27 7.672 124.33 7.612 124.402 7.612C124.762 7.612 125.242 7.624 125.842 7.648C126.442 7.672 126.958 7.684 127.39 7.684C127.894 7.684 128.458 7.672 129.082 7.648C129.706 7.624 130.246 7.612 130.702 7.612C130.75 7.612 130.798 7.672 130.846 7.792C130.894 7.888 130.918 7.996 130.918 8.116C130.918 8.476 130.846 8.656 130.702 8.656H129.442C129.082 8.656 128.854 8.752 128.758 8.944C128.662 9.136 128.59 9.436 128.542 9.844C128.47 10.516 128.398 11.632 128.326 13.192C128.278 14.728 128.23 16.528 128.182 18.592C128.158 20.656 128.146 22.828 128.146 25.108C128.146 25.348 127.93 25.468 127.498 25.468C127.138 25.468 126.874 25.384 126.706 25.216ZM149.311 25.216C149.311 25.216 149.047 24.916 148.519 24.316C148.015 23.692 147.343 22.876 146.503 21.868C145.663 20.86 144.727 19.744 143.695 18.52C142.663 17.296 141.631 16.06 140.599 14.812C139.567 13.54 138.607 12.376 137.719 11.32H137.611C137.659 13.816 137.695 15.904 137.719 17.584C137.767 19.264 137.803 20.728 137.827 21.976C137.827 22.432 137.875 22.864 137.971 23.272C138.067 23.656 138.199 23.848 138.367 23.848H139.807C139.879 23.848 139.927 23.932 139.951 24.1C139.999 24.268 140.023 24.424 140.023 24.568C140.023 24.664 140.011 24.76 139.987 24.856C139.963 24.928 139.903 24.964 139.807 24.964H136.819C136.243 24.964 135.643 24.976 135.019 25C134.395 25.024 133.903 25.036 133.543 25.036C133.495 25.036 133.447 24.988 133.399 24.892C133.375 24.796 133.363 24.7 133.363 24.604C133.363 24.484 133.375 24.352 133.399 24.208C133.447 24.064 133.495 23.992 133.543 23.992H134.407C134.815 23.992 135.103 23.944 135.271 23.848C135.439 23.752 135.535 23.56 135.559 23.272C135.631 22.408 135.703 21.4 135.775 20.248C135.847 19.096 135.907 17.896 135.955 16.648C136.003 15.4 136.039 14.176 136.063 12.976C136.087 11.752 136.099 10.636 136.099 9.628L135.919 9.412C135.631 9.076 135.343 8.884 135.055 8.836C134.791 8.764 134.323 8.728 133.651 8.728C133.507 8.728 133.435 8.536 133.435 8.152C133.435 7.792 133.507 7.612 133.651 7.612C133.963 7.612 134.443 7.624 135.091 7.648C135.763 7.648 136.447 7.66 137.143 7.684C137.839 7.684 138.367 7.684 138.727 7.684C138.727 7.684 138.943 7.96 139.375 8.512C139.807 9.04 140.359 9.748 141.031 10.636C141.727 11.5 142.483 12.448 143.299 13.48C144.115 14.512 144.907 15.532 145.675 16.54C146.443 17.524 147.127 18.4 147.727 19.168C148.327 19.936 148.759 20.488 149.023 20.824H149.095C149.071 18.4 149.047 16.276 149.023 14.452C148.999 12.604 148.939 11.056 148.843 9.808C148.771 9.088 148.579 8.728 148.267 8.728H147.007C146.911 8.728 146.839 8.668 146.791 8.548C146.767 8.404 146.755 8.26 146.755 8.116C146.755 7.996 146.779 7.888 146.827 7.792C146.875 7.672 146.935 7.612 147.007 7.612C147.367 7.612 147.847 7.624 148.447 7.648C149.047 7.672 149.563 7.684 149.995 7.684C150.499 7.684 151.063 7.672 151.687 7.648C152.311 7.624 152.851 7.612 153.307 7.612C153.355 7.612 153.403 7.672 153.451 7.792C153.499 7.888 153.523 7.996 153.523 8.116C153.523 8.476 153.451 8.656 153.307 8.656H152.047C151.687 8.656 151.459 8.752 151.363 8.944C151.267 9.136 151.195 9.436 151.147 9.844C151.075 10.516 151.003 11.632 150.931 13.192C150.883 14.728 150.835 16.528 150.787 18.592C150.763 20.656 150.751 22.828 150.751 25.108C150.751 25.348 150.535 25.468 150.103 25.468C149.743 25.468 149.479 25.384 149.311 25.216ZM161.513 15.856C162.281 15.832 163.013 15.796 163.709 15.748C164.429 15.7 165.029 15.652 165.509 15.604C165.989 15.532 166.253 15.484 166.301 15.46L166.553 13.948C166.601 13.828 166.769 13.768 167.057 13.768C167.129 13.768 167.225 13.792 167.345 13.84C167.465 13.864 167.525 13.924 167.525 14.02C167.477 14.404 167.441 14.776 167.417 15.136C167.393 15.472 167.381 15.844 167.381 16.252C167.381 16.612 167.393 17.008 167.417 17.44C167.441 17.848 167.477 18.256 167.525 18.664C167.525 18.736 167.453 18.796 167.309 18.844C167.189 18.868 167.069 18.88 166.949 18.88C166.853 18.88 166.757 18.868 166.661 18.844C166.589 18.82 166.553 18.784 166.553 18.736L166.265 17.188C166.217 17.14 165.953 17.092 165.473 17.044C165.017 16.996 164.441 16.948 163.745 16.9C163.049 16.852 162.305 16.816 161.513 16.792V21.148C161.513 22.156 161.585 22.864 161.729 23.272C161.873 23.656 162.041 23.848 162.233 23.848H163.385C164.513 23.824 165.581 23.716 166.589 23.524C167.621 23.332 168.377 23.068 168.857 22.732L169.037 21.328C169.061 21.256 169.133 21.208 169.253 21.184C169.397 21.136 169.517 21.112 169.613 21.112C169.733 21.112 169.841 21.124 169.937 21.148C170.033 21.172 170.069 21.232 170.045 21.328C169.949 21.952 169.889 22.66 169.865 23.452C169.841 24.22 169.829 24.928 169.829 25.576C169.829 25.648 169.769 25.696 169.649 25.72C169.553 25.744 169.469 25.756 169.397 25.756C169.301 25.756 169.181 25.744 169.037 25.72C168.917 25.696 168.857 25.648 168.857 25.576V25H162.449C160.985 25 159.857 25 159.065 25C158.273 25.024 157.685 25.036 157.301 25.036C156.917 25.06 156.593 25.072 156.329 25.072C156.233 25.072 156.161 25 156.113 24.856C156.089 24.712 156.077 24.592 156.077 24.496C156.077 24.376 156.089 24.268 156.113 24.172C156.161 24.052 156.221 23.992 156.293 23.992H157.913C158.177 23.992 158.333 23.932 158.381 23.812C158.429 23.692 158.453 23.404 158.453 22.948V11.608C158.453 10.6 158.381 9.868 158.237 9.412C158.117 8.956 157.949 8.728 157.733 8.728H156.437C156.149 8.728 156.005 8.548 156.005 8.188C156.005 7.804 156.137 7.612 156.401 7.612C156.857 7.612 157.409 7.624 158.057 7.648C158.729 7.672 159.401 7.684 160.073 7.684H167.525V7.108C167.525 7.036 167.573 6.988 167.669 6.964C167.765 6.916 167.861 6.892 167.957 6.892C168.053 6.892 168.161 6.916 168.281 6.964C168.425 6.988 168.497 7.036 168.497 7.108C168.497 7.756 168.509 8.464 168.533 9.232C168.581 10 168.653 10.648 168.749 11.176C168.773 11.248 168.737 11.308 168.641 11.356C168.545 11.38 168.449 11.392 168.353 11.392C168.257 11.392 168.125 11.38 167.957 11.356C167.813 11.308 167.741 11.248 167.741 11.176C167.645 10.84 167.525 10.48 167.381 10.096C167.261 9.712 167.057 9.448 166.769 9.304C166.313 9.136 165.749 9.004 165.077 8.908C164.405 8.812 163.505 8.764 162.377 8.764C162.041 8.788 161.813 8.896 161.693 9.088C161.573 9.256 161.513 9.544 161.513 9.952V15.856ZM172.881 16.936C172.881 15.448 173.157 14.116 173.709 12.94C174.285 11.74 175.065 10.72 176.049 9.88C177.033 9.016 178.149 8.356 179.397 7.9C180.669 7.444 181.989 7.216 183.357 7.216C184.173 7.216 184.917 7.324 185.589 7.54C186.285 7.732 186.909 7.972 187.461 8.26V7.648C187.461 7.48 187.605 7.396 187.893 7.396C187.989 7.396 188.085 7.42 188.181 7.468C188.301 7.492 188.361 7.552 188.361 7.648C188.361 8.296 188.397 9.088 188.469 10.024C188.541 10.96 188.625 11.74 188.721 12.364C188.745 12.46 188.697 12.532 188.577 12.58C188.481 12.628 188.373 12.652 188.253 12.652C188.157 12.652 188.049 12.628 187.929 12.58C187.809 12.532 187.737 12.46 187.713 12.364L187.425 10.456C186.705 9.76 185.973 9.268 185.229 8.98C184.485 8.692 183.669 8.548 182.781 8.548C181.653 8.548 180.609 8.884 179.649 9.556C178.689 10.228 177.921 11.152 177.345 12.328C176.769 13.48 176.481 14.812 176.481 16.324C176.481 17.836 176.781 19.18 177.381 20.356C178.005 21.532 178.821 22.456 179.829 23.128C180.837 23.8 181.953 24.136 183.177 24.136C184.065 24.136 184.881 24.016 185.625 23.776C186.393 23.512 187.173 23.116 187.965 22.588L188.145 20.536C188.145 20.344 188.301 20.248 188.613 20.248C188.709 20.248 188.829 20.272 188.973 20.32C189.117 20.344 189.177 20.416 189.153 20.536C189.081 20.896 189.033 21.352 189.009 21.904C188.985 22.456 188.961 23.02 188.937 23.596C188.937 24.148 188.937 24.64 188.937 25.072C188.937 25.144 188.865 25.192 188.721 25.216C188.601 25.264 188.493 25.288 188.397 25.288C188.109 25.288 187.965 25.216 187.965 25.072V24.46C186.309 25.132 184.665 25.468 183.033 25.468C181.113 25.468 179.385 25.12 177.849 24.424C176.313 23.728 175.101 22.744 174.213 21.472C173.325 20.2 172.881 18.688 172.881 16.936ZM201.227 21.148C201.227 22.156 201.299 22.864 201.443 23.272C201.587 23.68 201.755 23.884 201.947 23.884H203.747C203.819 23.884 203.879 23.944 203.927 24.064C203.999 24.184 204.035 24.328 204.035 24.496C204.035 24.616 204.011 24.736 203.963 24.856C203.939 24.952 203.891 25 203.819 25C203.387 25 202.823 25 202.127 25C201.431 24.976 200.603 24.964 199.643 24.964C198.491 24.964 197.675 24.976 197.195 25C196.715 25.048 196.331 25.072 196.043 25.072C195.947 25.072 195.875 25 195.827 24.856C195.803 24.712 195.791 24.592 195.791 24.496C195.791 24.376 195.803 24.268 195.827 24.172C195.875 24.052 195.935 23.992 196.007 23.992H197.627C197.891 23.992 198.047 23.932 198.095 23.812C198.143 23.692 198.167 23.404 198.167 22.948V12.004C198.167 11.044 198.107 10.336 197.987 9.88C197.867 9.424 197.711 9.172 197.519 9.124C196.607 9.124 195.791 9.148 195.071 9.196C194.375 9.244 193.739 9.34 193.163 9.484C192.851 9.58 192.611 9.844 192.443 10.276C192.275 10.708 192.155 11.092 192.083 11.428C192.083 11.524 192.023 11.596 191.903 11.644C191.807 11.668 191.711 11.68 191.615 11.68C191.519 11.68 191.399 11.668 191.255 11.644C191.135 11.596 191.087 11.524 191.111 11.428C191.183 10.876 191.231 10.192 191.255 9.376C191.279 8.536 191.291 7.792 191.291 7.144C191.291 7.096 191.363 7.048 191.507 7C191.651 6.952 191.771 6.928 191.867 6.928C191.939 6.928 192.023 6.952 192.119 7C192.215 7.024 192.263 7.072 192.263 7.144V7.612C192.455 7.612 192.803 7.624 193.307 7.648C193.811 7.648 194.387 7.66 195.035 7.684C195.707 7.684 196.355 7.684 196.979 7.684H199.643C199.931 7.684 200.423 7.684 201.119 7.684C201.839 7.684 202.607 7.684 203.423 7.684C204.239 7.66 204.971 7.648 205.619 7.648C206.291 7.624 206.747 7.612 206.987 7.612H207.095V7.144C207.095 7.072 207.143 7.024 207.239 7C207.335 6.952 207.419 6.928 207.491 6.928C207.611 6.928 207.731 6.952 207.851 7C207.995 7.048 208.067 7.096 208.067 7.144C208.067 7.792 208.079 8.536 208.103 9.376C208.127 10.192 208.175 10.876 208.247 11.428C208.271 11.524 208.223 11.596 208.103 11.644C207.983 11.668 207.863 11.68 207.743 11.68C207.647 11.68 207.539 11.668 207.419 11.644C207.323 11.596 207.275 11.524 207.275 11.428C207.203 11.092 207.083 10.708 206.915 10.276C206.771 9.844 206.531 9.58 206.195 9.484C205.643 9.364 205.031 9.28 204.359 9.232C203.711 9.184 203.015 9.148 202.271 9.124H201.587C201.347 9.148 201.227 9.34 201.227 9.7V21.148Z" fill="black"/>
</svg>
