<svg width="97" height="29" viewBox="0 0 97 29" fill="none" xmlns="http://www.w3.org/2000/svg">
<path d="M7.872 6.896C9.872 6.896 11.6 7.24 13.056 7.928C14.528 8.6 15.656 9.544 16.44 10.76C17.24 11.96 17.64 13.36 17.64 14.96C17.64 16.208 17.4 17.328 16.92 18.32C16.456 19.312 15.8 20.16 14.952 20.864C14.104 21.552 13.112 22.08 11.976 22.448C10.856 22.816 9.64 23 8.328 23H5.52C4.496 23 3.656 23.008 3 23.024C2.344 23.04 1.824 23.048 1.44 23.048C1.376 23.048 1.328 23.008 1.296 22.928C1.264 22.848 1.248 22.76 1.248 22.664C1.248 22.552 1.264 22.456 1.296 22.376C1.328 22.28 1.376 22.232 1.44 22.232H2.472C2.888 22.232 3.152 22.152 3.264 21.992C3.392 21.832 3.456 21.544 3.456 21.128V9.704C3.456 9.08 3.424 8.624 3.36 8.336C3.312 8.048 3.248 7.864 3.168 7.784C3.104 7.704 3.032 7.664 2.952 7.664H1.44C1.296 7.664 1.224 7.544 1.224 7.304C1.224 7.208 1.24 7.112 1.272 7.016C1.32 6.904 1.376 6.848 1.44 6.848C1.632 6.848 1.912 6.856 2.28 6.872C2.648 6.872 3.04 6.88 3.456 6.896C3.888 6.896 4.272 6.896 4.608 6.896H7.872ZM8.4 22.016C9.712 22 10.856 21.728 11.832 21.2C12.808 20.672 13.56 19.928 14.088 18.968C14.632 18.008 14.904 16.872 14.904 15.56C14.904 14.12 14.632 12.848 14.088 11.744C13.544 10.624 12.68 9.728 11.496 9.056C10.328 8.368 8.776 7.968 6.84 7.856C6.552 7.84 6.328 7.912 6.168 8.072C6.008 8.216 5.928 8.472 5.928 8.84V19.928C5.928 20.536 5.952 20.992 6 21.296C6.064 21.6 6.136 21.8 6.216 21.896C6.296 21.992 6.368 22.04 6.432 22.04L8.4 22.016ZM22.8418 16.904C23.3538 16.888 23.8418 16.864 24.3058 16.832C24.7858 16.8 25.1858 16.768 25.5058 16.736C25.8258 16.688 26.0018 16.656 26.0338 16.64L26.2018 15.632C26.2338 15.552 26.3458 15.512 26.5378 15.512C26.5858 15.512 26.6498 15.528 26.7298 15.56C26.8098 15.576 26.8498 15.616 26.8498 15.68C26.8178 15.936 26.7938 16.184 26.7778 16.424C26.7618 16.648 26.7538 16.896 26.7538 17.168C26.7538 17.408 26.7618 17.672 26.7778 17.96C26.7938 18.232 26.8178 18.504 26.8498 18.776C26.8498 18.824 26.8018 18.864 26.7058 18.896C26.6258 18.912 26.5458 18.92 26.4658 18.92C26.4018 18.92 26.3378 18.912 26.2738 18.896C26.2258 18.88 26.2018 18.856 26.2018 18.824L26.0098 17.792C25.9778 17.76 25.8018 17.728 25.4818 17.696C25.1778 17.664 24.7938 17.632 24.3298 17.6C23.8658 17.568 23.3698 17.544 22.8418 17.528V20.432C22.8418 21.104 22.8898 21.576 22.9858 21.848C23.0818 22.104 23.1938 22.232 23.3218 22.232H24.0898C24.8418 22.216 25.5538 22.144 26.2258 22.016C26.9138 21.888 27.4178 21.712 27.7378 21.488L27.8578 20.552C27.8738 20.504 27.9218 20.472 28.0018 20.456C28.0978 20.424 28.1778 20.408 28.2418 20.408C28.3218 20.408 28.3938 20.416 28.4578 20.432C28.5218 20.448 28.5458 20.488 28.5298 20.552C28.4658 20.968 28.4258 21.44 28.4098 21.968C28.3938 22.48 28.3858 22.952 28.3858 23.384C28.3858 23.432 28.3458 23.464 28.2658 23.48C28.2018 23.496 28.1458 23.504 28.0978 23.504C28.0338 23.504 27.9538 23.496 27.8578 23.48C27.7778 23.464 27.7378 23.432 27.7378 23.384V23H23.4658C22.4898 23 21.7378 23 21.2098 23C20.6818 23.016 20.2898 23.024 20.0338 23.024C19.7778 23.04 19.5618 23.048 19.3858 23.048C19.3218 23.048 19.2738 23 19.2418 22.904C19.2258 22.808 19.2178 22.728 19.2178 22.664C19.2178 22.584 19.2258 22.512 19.2418 22.448C19.2738 22.368 19.3138 22.328 19.3618 22.328H20.4418C20.6178 22.328 20.7218 22.288 20.7538 22.208C20.7858 22.128 20.8018 21.936 20.8018 21.632V14.072C20.8018 13.4 20.7538 12.912 20.6578 12.608C20.5778 12.304 20.4658 12.152 20.3218 12.152H19.4578C19.2658 12.152 19.1698 12.032 19.1698 11.792C19.1698 11.536 19.2578 11.408 19.4338 11.408C19.7378 11.408 20.1058 11.416 20.5378 11.432C20.9858 11.448 21.4338 11.456 21.8818 11.456H26.8498V11.072C26.8498 11.024 26.8818 10.992 26.9458 10.976C27.0098 10.944 27.0738 10.928 27.1378 10.928C27.2018 10.928 27.2738 10.944 27.3538 10.976C27.4498 10.992 27.4978 11.024 27.4978 11.072C27.4978 11.504 27.5058 11.976 27.5218 12.488C27.5538 13 27.6018 13.432 27.6658 13.784C27.6818 13.832 27.6578 13.872 27.5938 13.904C27.5298 13.92 27.4658 13.928 27.4018 13.928C27.3378 13.928 27.2498 13.92 27.1378 13.904C27.0418 13.872 26.9938 13.832 26.9938 13.784C26.9298 13.56 26.8498 13.32 26.7538 13.064C26.6738 12.808 26.5378 12.632 26.3458 12.536C26.0418 12.424 25.6658 12.336 25.2178 12.272C24.7698 12.208 24.1698 12.176 23.4178 12.176C23.1938 12.192 23.0418 12.264 22.9618 12.392C22.8818 12.504 22.8418 12.696 22.8418 12.968V16.904ZM40.6929 12.032C40.5169 12.032 40.3889 12.104 40.3089 12.248C40.1489 12.52 39.9329 12.952 39.6609 13.544C39.4049 14.136 39.1249 14.816 38.8209 15.584C38.5329 16.352 38.2369 17.144 37.9329 17.96C37.6289 18.76 37.3409 19.536 37.0689 20.288C36.7969 21.024 36.5649 21.664 36.3729 22.208C36.1969 22.752 36.0769 23.128 36.0129 23.336C35.9489 23.48 35.7889 23.552 35.5329 23.552C35.2929 23.552 35.1409 23.472 35.0769 23.312C34.9969 22.96 34.8369 22.464 34.5969 21.824C34.3569 21.184 34.0769 20.464 33.7569 19.664C33.4369 18.864 33.1009 18.048 32.7489 17.216C32.3969 16.384 32.0529 15.6 31.7169 14.864C31.3969 14.112 31.1169 13.48 30.8769 12.968C30.6849 12.568 30.5089 12.32 30.3489 12.224C30.1889 12.112 29.9409 12.056 29.6049 12.056C29.5089 12.056 29.4609 11.96 29.4609 11.768C29.4609 11.688 29.4689 11.608 29.4849 11.528C29.5169 11.448 29.5569 11.408 29.6049 11.408C30.0529 11.408 30.4369 11.416 30.7569 11.432C31.0769 11.448 31.4529 11.456 31.8849 11.456C32.1889 11.456 32.5569 11.448 32.9889 11.432C33.4369 11.416 33.9329 11.408 34.4769 11.408C34.5409 11.408 34.5809 11.44 34.5969 11.504C34.6129 11.568 34.6209 11.64 34.6209 11.72C34.6209 11.928 34.5729 12.032 34.4769 12.032H33.3249C33.1489 12.032 33.0609 12.104 33.0609 12.248C33.0609 12.312 33.1329 12.56 33.2769 12.992C33.4369 13.408 33.6369 13.944 33.8769 14.6C34.1169 15.24 34.3729 15.936 34.6449 16.688C34.9169 17.44 35.1809 18.176 35.4369 18.896C35.6929 19.6 35.9089 20.216 36.0849 20.744C36.4529 19.496 36.8369 18.304 37.2369 17.168C37.6369 16.032 37.9729 15.056 38.2449 14.24C38.5329 13.408 38.6769 12.84 38.6769 12.536C38.6769 12.344 38.6449 12.216 38.5809 12.152C38.5329 12.088 38.4689 12.056 38.3889 12.056H37.4049C37.2769 12.056 37.2129 11.96 37.2129 11.768C37.2129 11.688 37.2209 11.608 37.2369 11.528C37.2689 11.448 37.3089 11.408 37.3569 11.408C37.7569 11.408 38.0689 11.416 38.2929 11.432C38.5329 11.432 38.7409 11.44 38.9169 11.456C39.1089 11.456 39.3249 11.456 39.5649 11.456C39.8529 11.456 40.1169 11.448 40.3569 11.432C40.5969 11.416 40.9169 11.408 41.3169 11.408C41.3809 11.408 41.4209 11.44 41.4369 11.504C41.4689 11.568 41.4849 11.64 41.4849 11.72C41.4849 11.928 41.4289 12.032 41.3169 12.032H40.6929ZM42.5884 15.488C42.5884 14.048 42.8604 12.776 43.4044 11.672C43.9644 10.568 44.7084 9.64 45.6364 8.888C46.5804 8.12 47.6364 7.544 48.8044 7.16C49.9884 6.776 51.2124 6.584 52.4764 6.584C53.2284 6.584 53.9324 6.672 54.5884 6.848C55.2444 7.024 55.8284 7.248 56.3404 7.52V6.968C56.3404 6.888 56.3804 6.832 56.4604 6.8C56.5404 6.768 56.6284 6.752 56.7244 6.752C56.9324 6.752 57.0364 6.824 57.0364 6.968C57.0364 7.56 57.0524 8.16 57.0844 8.768C57.1324 9.376 57.1964 9.96 57.2764 10.52C57.2924 10.6 57.2604 10.664 57.1804 10.712C57.1004 10.744 57.0044 10.76 56.8924 10.76C56.7964 10.76 56.7084 10.744 56.6284 10.712C56.5484 10.664 56.5004 10.6 56.4844 10.52L56.2924 9.392C55.6364 8.784 54.9484 8.344 54.2284 8.072C53.5084 7.8 52.7484 7.664 51.9484 7.664C50.8124 7.664 49.7564 7.936 48.7804 8.48C47.8044 9.024 47.0204 9.832 46.4284 10.904C45.8524 11.976 45.5644 13.32 45.5644 14.936C45.5644 16.568 45.8764 17.928 46.5004 19.016C47.1244 20.088 47.9484 20.896 48.9724 21.44C49.9964 21.968 51.1164 22.232 52.3324 22.232C53.9004 22.232 55.3884 21.752 56.7964 20.792L56.9404 19.664C56.9724 19.488 57.1164 19.4 57.3724 19.4C57.4684 19.4 57.5564 19.424 57.6364 19.472C57.7164 19.52 57.7484 19.584 57.7324 19.664C57.6524 20.08 57.5964 20.584 57.5644 21.176C57.5484 21.752 57.5404 22.344 57.5404 22.952C57.5404 23.08 57.4204 23.144 57.1804 23.144C57.0844 23.144 56.9964 23.128 56.9164 23.096C56.8364 23.064 56.7964 23.016 56.7964 22.952V22.376C55.2444 23 53.7084 23.312 52.1884 23.312C50.8764 23.312 49.6364 23.144 48.4684 22.808C47.3164 22.472 46.2924 21.976 45.3964 21.32C44.5164 20.648 43.8284 19.824 43.3324 18.848C42.8364 17.872 42.5884 16.752 42.5884 15.488ZM66.2659 11.144C67.1139 11.144 67.9219 11.304 68.6899 11.624C69.4739 11.944 70.1619 12.384 70.7539 12.944C71.3619 13.504 71.8339 14.152 72.1699 14.888C72.5219 15.608 72.6979 16.376 72.6979 17.192C72.6979 18.024 72.5219 18.808 72.1699 19.544C71.8339 20.28 71.3619 20.936 70.7539 21.512C70.1619 22.072 69.4739 22.512 68.6899 22.832C67.9219 23.152 67.1139 23.312 66.2659 23.312C65.4179 23.312 64.6019 23.152 63.8179 22.832C63.0499 22.512 62.3619 22.072 61.7539 21.512C61.1619 20.936 60.6899 20.28 60.3379 19.544C60.0019 18.808 59.8339 18.024 59.8339 17.192C59.8339 16.376 60.0019 15.608 60.3379 14.888C60.6899 14.152 61.1619 13.504 61.7539 12.944C62.3619 12.384 63.0499 11.944 63.8179 11.624C64.6019 11.304 65.4179 11.144 66.2659 11.144ZM66.2659 12.008C65.4499 12.008 64.7379 12.248 64.1299 12.728C63.5379 13.192 63.0739 13.816 62.7379 14.6C62.4019 15.384 62.2339 16.248 62.2339 17.192C62.2339 18.136 62.4019 19.008 62.7379 19.808C63.0739 20.608 63.5379 21.248 64.1299 21.728C64.7379 22.208 65.4499 22.448 66.2659 22.448C67.0819 22.448 67.7859 22.208 68.3779 21.728C68.9859 21.248 69.4579 20.608 69.7939 19.808C70.1299 19.008 70.2979 18.136 70.2979 17.192C70.2979 16.248 70.1299 15.384 69.7939 14.6C69.4579 13.816 68.9859 13.192 68.3779 12.728C67.7859 12.248 67.0819 12.008 66.2659 12.008ZM85.1372 23.144C85.1372 23.144 84.9612 22.944 84.6092 22.544C84.2732 22.128 83.8252 21.584 83.2652 20.912C82.7052 20.24 82.0812 19.496 81.3932 18.68C80.7052 17.864 80.0172 17.04 79.3292 16.208C78.6412 15.36 78.0012 14.584 77.4092 13.88H77.3372C77.3692 15.544 77.3932 16.936 77.4092 18.056C77.4412 19.176 77.4652 20.152 77.4812 20.984C77.4812 21.288 77.5132 21.576 77.5772 21.848C77.6412 22.104 77.7292 22.232 77.8412 22.232H78.8012C78.8492 22.232 78.8812 22.288 78.8972 22.4C78.9292 22.512 78.9452 22.616 78.9452 22.712C78.9452 22.776 78.9372 22.84 78.9212 22.904C78.9052 22.952 78.8652 22.976 78.8012 22.976H76.8092C76.4252 22.976 76.0252 22.984 75.6092 23C75.1932 23.016 74.8652 23.024 74.6252 23.024C74.5932 23.024 74.5612 22.992 74.5292 22.928C74.5132 22.864 74.5052 22.8 74.5052 22.736C74.5052 22.656 74.5132 22.568 74.5292 22.472C74.5612 22.376 74.5932 22.328 74.6252 22.328H75.2012C75.4732 22.328 75.6652 22.296 75.7772 22.232C75.8892 22.168 75.9532 22.04 75.9692 21.848C76.0172 21.272 76.0652 20.6 76.1132 19.832C76.1612 19.064 76.2012 18.264 76.2332 17.432C76.2652 16.6 76.2892 15.784 76.3052 14.984C76.3212 14.168 76.3292 13.424 76.3292 12.752L76.2092 12.608C76.0172 12.384 75.8252 12.256 75.6332 12.224C75.4572 12.176 75.1452 12.152 74.6972 12.152C74.6012 12.152 74.5532 12.024 74.5532 11.768C74.5532 11.528 74.6012 11.408 74.6972 11.408C74.9052 11.408 75.2252 11.416 75.6572 11.432C76.1052 11.432 76.5612 11.44 77.0252 11.456C77.4892 11.456 77.8412 11.456 78.0812 11.456C78.0812 11.456 78.2252 11.64 78.5132 12.008C78.8012 12.36 79.1692 12.832 79.6172 13.424C80.0812 14 80.5852 14.632 81.1292 15.32C81.6732 16.008 82.2012 16.688 82.7132 17.36C83.2252 18.016 83.6812 18.6 84.0812 19.112C84.4812 19.624 84.7692 19.992 84.9452 20.216H84.9932C84.9772 18.6 84.9612 17.184 84.9452 15.968C84.9292 14.736 84.8892 13.704 84.8252 12.872C84.7772 12.392 84.6492 12.152 84.4412 12.152H83.6012C83.5372 12.152 83.4892 12.112 83.4572 12.032C83.4412 11.936 83.4332 11.84 83.4332 11.744C83.4332 11.664 83.4492 11.592 83.4812 11.528C83.5132 11.448 83.5532 11.408 83.6012 11.408C83.8412 11.408 84.1612 11.416 84.5612 11.432C84.9612 11.448 85.3052 11.456 85.5932 11.456C85.9292 11.456 86.3052 11.448 86.7212 11.432C87.1372 11.416 87.4972 11.408 87.8012 11.408C87.8332 11.408 87.8652 11.448 87.8972 11.528C87.9292 11.592 87.9452 11.664 87.9452 11.744C87.9452 11.984 87.8972 12.104 87.8012 12.104H86.9612C86.7212 12.104 86.5692 12.168 86.5052 12.296C86.4412 12.424 86.3932 12.624 86.3612 12.896C86.3132 13.344 86.2652 14.088 86.2172 15.128C86.1852 16.152 86.1532 17.352 86.1212 18.728C86.1052 20.104 86.0972 21.552 86.0972 23.072C86.0972 23.232 85.9532 23.312 85.6652 23.312C85.4252 23.312 85.2492 23.256 85.1372 23.144Z" fill="black"/>
</svg>
