<svg width="209" height="26" viewBox="0 0 209 26" fill="none" xmlns="http://www.w3.org/2000/svg">
<path d="M10.808 1.01685C13.808 1.01685 16.4 1.53285 18.584 2.56485C20.792 3.57285 22.484 4.98885 23.66 6.81285C24.86 8.61285 25.46 10.7129 25.46 13.1129C25.46 14.9849 25.1 16.6649 24.38 18.1529C23.684 19.6409 22.7 20.9129 21.428 21.9689C20.156 23.0009 18.668 23.7929 16.964 24.3449C15.284 24.8969 13.46 25.1729 11.492 25.1729H7.28C5.744 25.1729 4.484 25.1849 3.5 25.2089C2.516 25.2329 1.736 25.2449 1.16 25.2449C1.064 25.2449 0.992 25.1849 0.944 25.0649C0.896 24.9449 0.872 24.8129 0.872 24.6689C0.872 24.5009 0.896 24.3569 0.944 24.2369C0.992 24.0929 1.064 24.0209 1.16 24.0209H2.708C3.332 24.0209 3.728 23.9009 3.896 23.6609C4.088 23.4209 4.184 22.9889 4.184 22.3649V5.22885C4.184 4.29285 4.136 3.60885 4.04 3.17685C3.968 2.74485 3.872 2.46885 3.752 2.34885C3.656 2.22885 3.548 2.16885 3.428 2.16885H1.16C0.944 2.16885 0.836 1.98885 0.836 1.62885C0.836 1.48485 0.86 1.34085 0.908 1.19685C0.98 1.02885 1.064 0.94485 1.16 0.94485C1.448 0.94485 1.868 0.95685 2.42 0.98085C2.972 0.98085 3.56 0.99285 4.184 1.01685C4.832 1.01685 5.408 1.01685 5.912 1.01685H10.808ZM11.6 23.6969C13.568 23.6729 15.284 23.2649 16.748 22.4729C18.212 21.6809 19.34 20.5649 20.132 19.1249C20.948 17.6849 21.356 15.9809 21.356 14.0129C21.356 11.8529 20.948 9.94485 20.132 8.28885C19.316 6.60885 18.02 5.26485 16.244 4.25685C14.492 3.22485 12.164 2.62485 9.26 2.45685C8.828 2.43285 8.492 2.54085 8.252 2.78085C8.012 2.99685 7.892 3.38085 7.892 3.93285V20.5649C7.892 21.4769 7.928 22.1609 8 22.6169C8.096 23.0729 8.204 23.3729 8.324 23.5169C8.444 23.6609 8.552 23.7329 8.648 23.7329L11.6 23.6969ZM33.2627 16.0289C34.0307 16.0049 34.7627 15.9689 35.4587 15.9209C36.1787 15.8729 36.7787 15.8249 37.2587 15.7769C37.7387 15.7049 38.0027 15.6569 38.0507 15.6329L38.3027 14.1209C38.3507 14.0009 38.5187 13.9409 38.8067 13.9409C38.8787 13.9409 38.9747 13.9649 39.0947 14.0129C39.2147 14.0369 39.2747 14.0969 39.2747 14.1929C39.2267 14.5769 39.1907 14.9489 39.1667 15.3089C39.1427 15.6449 39.1307 16.0169 39.1307 16.4249C39.1307 16.7849 39.1427 17.1809 39.1667 17.6129C39.1907 18.0209 39.2267 18.4289 39.2747 18.8369C39.2747 18.9089 39.2027 18.9689 39.0587 19.0169C38.9387 19.0409 38.8187 19.0529 38.6987 19.0529C38.6027 19.0529 38.5067 19.0409 38.4107 19.0169C38.3387 18.9929 38.3027 18.9569 38.3027 18.9089L38.0147 17.3609C37.9667 17.3129 37.7027 17.2649 37.2227 17.2169C36.7667 17.1689 36.1907 17.1209 35.4947 17.0729C34.7987 17.0249 34.0547 16.9889 33.2627 16.9649V21.3209C33.2627 22.3289 33.3347 23.0369 33.4787 23.4449C33.6227 23.8289 33.7907 24.0209 33.9827 24.0209H35.1347C36.2627 23.9969 37.3307 23.8889 38.3387 23.6969C39.3707 23.5049 40.1267 23.2409 40.6067 22.9049L40.7867 21.5009C40.8107 21.4289 40.8827 21.3809 41.0027 21.3569C41.1467 21.3089 41.2667 21.2849 41.3627 21.2849C41.4827 21.2849 41.5907 21.2969 41.6867 21.3209C41.7827 21.3449 41.8187 21.4049 41.7947 21.5009C41.6987 22.1249 41.6387 22.8329 41.6147 23.6249C41.5907 24.3929 41.5787 25.1009 41.5787 25.7489C41.5787 25.8209 41.5187 25.8689 41.3987 25.8929C41.3027 25.9169 41.2187 25.9289 41.1467 25.9289C41.0507 25.9289 40.9307 25.9169 40.7867 25.8929C40.6667 25.8689 40.6067 25.8209 40.6067 25.7489V25.1729H34.1987C32.7347 25.1729 31.6067 25.1729 30.8147 25.1729C30.0227 25.1969 29.4347 25.2089 29.0507 25.2089C28.6667 25.2329 28.3427 25.2449 28.0787 25.2449C27.9827 25.2449 27.9107 25.1729 27.8627 25.0289C27.8387 24.8849 27.8267 24.7649 27.8267 24.6689C27.8267 24.5489 27.8387 24.4409 27.8627 24.3449C27.9107 24.2249 27.9707 24.1649 28.0427 24.1649H29.6627C29.9267 24.1649 30.0827 24.1049 30.1307 23.9849C30.1787 23.8649 30.2027 23.5769 30.2027 23.1209V11.7809C30.2027 10.7729 30.1307 10.0409 29.9867 9.58485C29.8667 9.12885 29.6987 8.90085 29.4827 8.90085H28.1867C27.8987 8.90085 27.7547 8.72085 27.7547 8.36085C27.7547 7.97685 27.8867 7.78485 28.1507 7.78485C28.6067 7.78485 29.1587 7.79685 29.8067 7.82085C30.4787 7.84485 31.1507 7.85685 31.8227 7.85685H39.2747V7.28085C39.2747 7.20885 39.3227 7.16085 39.4187 7.13685C39.5147 7.08885 39.6107 7.06485 39.7067 7.06485C39.8027 7.06485 39.9107 7.08885 40.0307 7.13685C40.1747 7.16085 40.2467 7.20885 40.2467 7.28085C40.2467 7.92885 40.2587 8.63685 40.2827 9.40485C40.3307 10.1729 40.4027 10.8209 40.4987 11.3489C40.5227 11.4209 40.4867 11.4809 40.3907 11.5289C40.2947 11.5529 40.1987 11.5649 40.1027 11.5649C40.0067 11.5649 39.8747 11.5529 39.7067 11.5289C39.5627 11.4809 39.4907 11.4209 39.4907 11.3489C39.3947 11.0129 39.2747 10.6529 39.1307 10.2689C39.0107 9.88485 38.8067 9.62085 38.5187 9.47685C38.0627 9.30885 37.4987 9.17685 36.8267 9.08085C36.1547 8.98485 35.2547 8.93685 34.1267 8.93685C33.7907 8.96085 33.5627 9.06885 33.4427 9.26085C33.3227 9.42885 33.2627 9.71685 33.2627 10.1249V16.0289ZM60.0394 8.72085C59.7754 8.72085 59.5834 8.82885 59.4634 9.04485C59.2234 9.45285 58.8994 10.1009 58.4914 10.9889C58.1074 11.8769 57.6874 12.8969 57.2314 14.0489C56.7994 15.2009 56.3554 16.3889 55.8994 17.6129C55.4434 18.8129 55.0114 19.9769 54.6034 21.1049C54.1954 22.2089 53.8474 23.1689 53.5594 23.9849C53.2954 24.8009 53.1154 25.3649 53.0194 25.6769C52.9234 25.8929 52.6834 26.0009 52.2994 26.0009C51.9394 26.0009 51.7114 25.8809 51.6154 25.6409C51.4954 25.1129 51.2554 24.3689 50.8954 23.4089C50.5354 22.4489 50.1154 21.3689 49.6354 20.1689C49.1554 18.9689 48.6514 17.7449 48.1234 16.4969C47.5954 15.2489 47.0794 14.0729 46.5754 12.9689C46.0954 11.8409 45.6754 10.8929 45.3154 10.1249C45.0274 9.52485 44.7634 9.15285 44.5234 9.00885C44.2834 8.84085 43.9114 8.75685 43.4074 8.75685C43.2634 8.75685 43.1914 8.61285 43.1914 8.32485C43.1914 8.20485 43.2034 8.08485 43.2274 7.96485C43.2754 7.84485 43.3354 7.78485 43.4074 7.78485C44.0794 7.78485 44.6554 7.79685 45.1354 7.82085C45.6154 7.84485 46.1794 7.85685 46.8274 7.85685C47.2834 7.85685 47.8354 7.84485 48.4834 7.82085C49.1554 7.79685 49.8994 7.78485 50.7154 7.78485C50.8114 7.78485 50.8714 7.83285 50.8954 7.92885C50.9194 8.02485 50.9314 8.13285 50.9314 8.25285C50.9314 8.56485 50.8594 8.72085 50.7154 8.72085H48.9874C48.7234 8.72085 48.5914 8.82885 48.5914 9.04485C48.5914 9.14085 48.6994 9.51285 48.9154 10.1609C49.1554 10.7849 49.4554 11.5889 49.8154 12.5729C50.1754 13.5329 50.5594 14.5769 50.9674 15.7049C51.3754 16.8329 51.7714 17.9369 52.1554 19.0169C52.5394 20.0729 52.8634 20.9969 53.1274 21.7889C53.6794 19.9169 54.2554 18.1289 54.8554 16.4249C55.4554 14.7209 55.9594 13.2569 56.3674 12.0329C56.7994 10.7849 57.0154 9.93285 57.0154 9.47685C57.0154 9.18885 56.9674 8.99685 56.8714 8.90085C56.7994 8.80485 56.7034 8.75685 56.5834 8.75685H55.1074C54.9154 8.75685 54.8194 8.61285 54.8194 8.32485C54.8194 8.20485 54.8314 8.08485 54.8554 7.96485C54.9034 7.84485 54.9634 7.78485 55.0354 7.78485C55.6354 7.78485 56.1034 7.79685 56.4394 7.82085C56.7994 7.82085 57.1114 7.83285 57.3754 7.85685C57.6634 7.85685 57.9874 7.85685 58.3474 7.85685C58.7794 7.85685 59.1754 7.84485 59.5354 7.82085C59.8954 7.79685 60.3754 7.78485 60.9754 7.78485C61.0714 7.78485 61.1314 7.83285 61.1554 7.92885C61.2034 8.02485 61.2274 8.13285 61.2274 8.25285C61.2274 8.56485 61.1434 8.72085 60.9754 8.72085H60.0394ZM62.8826 13.9049C62.8826 11.7449 63.2906 9.83685 64.1066 8.18085C64.9466 6.52485 66.0626 5.13285 67.4546 4.00485C68.8706 2.85285 70.4546 1.98885 72.2066 1.41285C73.9826 0.836851 75.8186 0.548851 77.7146 0.548851C78.8426 0.548851 79.8986 0.680851 80.8826 0.94485C81.8666 1.20885 82.7426 1.54485 83.5106 1.95285V1.12485C83.5106 1.00485 83.5706 0.920851 83.6906 0.872851C83.8106 0.82485 83.9426 0.80085 84.0866 0.80085C84.3986 0.80085 84.5546 0.90885 84.5546 1.12485C84.5546 2.01285 84.5786 2.91285 84.6266 3.82485C84.6986 4.73685 84.7946 5.61285 84.9146 6.45285C84.9386 6.57285 84.8906 6.66885 84.7706 6.74085C84.6506 6.78885 84.5066 6.81285 84.3386 6.81285C84.1946 6.81285 84.0626 6.78885 83.9426 6.74085C83.8226 6.66885 83.7506 6.57285 83.7266 6.45285L83.4386 4.76085C82.4546 3.84885 81.4226 3.18885 80.3426 2.78085C79.2626 2.37285 78.1226 2.16885 76.9226 2.16885C75.2186 2.16885 73.6346 2.57685 72.1706 3.39285C70.7066 4.20885 69.5306 5.42085 68.6426 7.02885C67.7786 8.63685 67.3466 10.6529 67.3466 13.0769C67.3466 15.5249 67.8146 17.5649 68.7506 19.1969C69.6866 20.8049 70.9226 22.0169 72.4586 22.8329C73.9946 23.6249 75.6746 24.0209 77.4986 24.0209C79.8506 24.0209 82.0826 23.3009 84.1946 21.8609L84.4106 20.1689C84.4586 19.9049 84.6746 19.7729 85.0586 19.7729C85.2026 19.7729 85.3346 19.8089 85.4546 19.8809C85.5746 19.9529 85.6226 20.0489 85.5986 20.1689C85.4786 20.7929 85.3946 21.5489 85.3466 22.4369C85.3226 23.3009 85.3106 24.1889 85.3106 25.1009C85.3106 25.2929 85.1306 25.3889 84.7706 25.3889C84.6266 25.3889 84.4946 25.3649 84.3746 25.3169C84.2546 25.2689 84.1946 25.1969 84.1946 25.1009V24.2369C81.8666 25.1729 79.5626 25.6409 77.2826 25.6409C75.3146 25.6409 73.4546 25.3889 71.7026 24.8849C69.9746 24.3809 68.4386 23.6369 67.0946 22.6529C65.7746 21.6449 64.7426 20.4089 63.9986 18.9449C63.2546 17.4809 62.8826 15.8009 62.8826 13.9049ZM98.3988 7.38885C99.6708 7.38885 100.883 7.62885 102.035 8.10885C103.211 8.58885 104.243 9.24885 105.131 10.0889C106.043 10.9289 106.751 11.9009 107.255 13.0049C107.783 14.0849 108.047 15.2369 108.047 16.4609C108.047 17.7089 107.783 18.8849 107.255 19.9889C106.751 21.0929 106.043 22.0769 105.131 22.9409C104.243 23.7809 103.211 24.4409 102.035 24.9209C100.883 25.4009 99.6708 25.6409 98.3988 25.6409C97.1268 25.6409 95.9028 25.4009 94.7268 24.9209C93.5748 24.4409 92.5428 23.7809 91.6308 22.9409C90.7428 22.0769 90.0348 21.0929 89.5068 19.9889C89.0028 18.8849 88.7508 17.7089 88.7508 16.4609C88.7508 15.2369 89.0028 14.0849 89.5068 13.0049C90.0348 11.9009 90.7428 10.9289 91.6308 10.0889C92.5428 9.24885 93.5748 8.58885 94.7268 8.10885C95.9028 7.62885 97.1268 7.38885 98.3988 7.38885ZM98.3988 8.68485C97.1748 8.68485 96.1068 9.04485 95.1948 9.76485C94.3068 10.4609 93.6108 11.3969 93.1068 12.5729C92.6028 13.7489 92.3508 15.0449 92.3508 16.4609C92.3508 17.8769 92.6028 19.1849 93.1068 20.3849C93.6108 21.5849 94.3068 22.5449 95.1948 23.2649C96.1068 23.9849 97.1748 24.3449 98.3988 24.3449C99.6228 24.3449 100.679 23.9849 101.567 23.2649C102.479 22.5449 103.187 21.5849 103.691 20.3849C104.195 19.1849 104.447 17.8769 104.447 16.4609C104.447 15.0449 104.195 13.7489 103.691 12.5729C103.187 11.3969 102.479 10.4609 101.567 9.76485C100.679 9.04485 99.6228 8.68485 98.3988 8.68485ZM126.706 25.3889C126.706 25.3889 126.442 25.0889 125.914 24.4889C125.41 23.8649 124.738 23.0489 123.898 22.0409C123.058 21.0329 122.122 19.9169 121.09 18.6929C120.058 17.4689 119.026 16.2329 117.994 14.9849C116.962 13.7129 116.002 12.5489 115.114 11.4929H115.006C115.054 13.9889 115.09 16.0769 115.114 17.7569C115.162 19.4369 115.198 20.9009 115.222 22.1489C115.222 22.6049 115.27 23.0369 115.366 23.4449C115.462 23.8289 115.594 24.0209 115.762 24.0209H117.202C117.274 24.0209 117.322 24.1049 117.346 24.2729C117.394 24.4409 117.418 24.5969 117.418 24.7409C117.418 24.8369 117.406 24.9329 117.382 25.0289C117.358 25.1009 117.298 25.1369 117.202 25.1369H114.214C113.638 25.1369 113.038 25.1489 112.414 25.1729C111.79 25.1969 111.298 25.2089 110.938 25.2089C110.89 25.2089 110.842 25.1609 110.794 25.0649C110.77 24.9689 110.758 24.8729 110.758 24.7769C110.758 24.6569 110.77 24.5249 110.794 24.3809C110.842 24.2369 110.89 24.1649 110.938 24.1649H111.802C112.21 24.1649 112.498 24.1169 112.666 24.0209C112.834 23.9249 112.93 23.7329 112.954 23.4449C113.026 22.5809 113.098 21.5729 113.17 20.4209C113.242 19.2689 113.302 18.0689 113.35 16.8209C113.398 15.5729 113.434 14.3489 113.458 13.1489C113.482 11.9249 113.494 10.8089 113.494 9.80085L113.314 9.58485C113.026 9.24885 112.738 9.05685 112.45 9.00885C112.186 8.93685 111.718 8.90085 111.046 8.90085C110.902 8.90085 110.83 8.70885 110.83 8.32485C110.83 7.96485 110.902 7.78485 111.046 7.78485C111.358 7.78485 111.838 7.79685 112.486 7.82085C113.158 7.82085 113.842 7.83285 114.538 7.85685C115.234 7.85685 115.762 7.85685 116.122 7.85685C116.122 7.85685 116.338 8.13285 116.77 8.68485C117.202 9.21285 117.754 9.92085 118.426 10.8089C119.122 11.6729 119.878 12.6209 120.694 13.6529C121.51 14.6849 122.302 15.7049 123.07 16.7129C123.838 17.6969 124.522 18.5729 125.122 19.3409C125.722 20.1089 126.154 20.6609 126.418 20.9969H126.49C126.466 18.5729 126.442 16.4489 126.418 14.6249C126.394 12.7769 126.334 11.2289 126.238 9.98085C126.166 9.26085 125.974 8.90085 125.662 8.90085H124.402C124.306 8.90085 124.234 8.84085 124.186 8.72085C124.162 8.57685 124.15 8.43285 124.15 8.28885C124.15 8.16885 124.174 8.06085 124.222 7.96485C124.27 7.84485 124.33 7.78485 124.402 7.78485C124.762 7.78485 125.242 7.79685 125.842 7.82085C126.442 7.84485 126.958 7.85685 127.39 7.85685C127.894 7.85685 128.458 7.84485 129.082 7.82085C129.706 7.79685 130.246 7.78485 130.702 7.78485C130.75 7.78485 130.798 7.84485 130.846 7.96485C130.894 8.06085 130.918 8.16885 130.918 8.28885C130.918 8.64885 130.846 8.82885 130.702 8.82885H129.442C129.082 8.82885 128.854 8.92485 128.758 9.11685C128.662 9.30885 128.59 9.60885 128.542 10.0169C128.47 10.6889 128.398 11.8049 128.326 13.3649C128.278 14.9009 128.23 16.7009 128.182 18.7649C128.158 20.8289 128.146 23.0009 128.146 25.2809C128.146 25.5209 127.93 25.6409 127.498 25.6409C127.138 25.6409 126.874 25.5569 126.706 25.3889ZM149.311 25.3889C149.311 25.3889 149.047 25.0889 148.519 24.4889C148.015 23.8649 147.343 23.0489 146.503 22.0409C145.663 21.0329 144.727 19.9169 143.695 18.6929C142.663 17.4689 141.631 16.2329 140.599 14.9849C139.567 13.7129 138.607 12.5489 137.719 11.4929H137.611C137.659 13.9889 137.695 16.0769 137.719 17.7569C137.767 19.4369 137.803 20.9009 137.827 22.1489C137.827 22.6049 137.875 23.0369 137.971 23.4449C138.067 23.8289 138.199 24.0209 138.367 24.0209H139.807C139.879 24.0209 139.927 24.1049 139.951 24.2729C139.999 24.4409 140.023 24.5969 140.023 24.7409C140.023 24.8369 140.011 24.9329 139.987 25.0289C139.963 25.1009 139.903 25.1369 139.807 25.1369H136.819C136.243 25.1369 135.643 25.1489 135.019 25.1729C134.395 25.1969 133.903 25.2089 133.543 25.2089C133.495 25.2089 133.447 25.1609 133.399 25.0649C133.375 24.9689 133.363 24.8729 133.363 24.7769C133.363 24.6569 133.375 24.5249 133.399 24.3809C133.447 24.2369 133.495 24.1649 133.543 24.1649H134.407C134.815 24.1649 135.103 24.1169 135.271 24.0209C135.439 23.9249 135.535 23.7329 135.559 23.4449C135.631 22.5809 135.703 21.5729 135.775 20.4209C135.847 19.2689 135.907 18.0689 135.955 16.8209C136.003 15.5729 136.039 14.3489 136.063 13.1489C136.087 11.9249 136.099 10.8089 136.099 9.80085L135.919 9.58485C135.631 9.24885 135.343 9.05685 135.055 9.00885C134.791 8.93685 134.323 8.90085 133.651 8.90085C133.507 8.90085 133.435 8.70885 133.435 8.32485C133.435 7.96485 133.507 7.78485 133.651 7.78485C133.963 7.78485 134.443 7.79685 135.091 7.82085C135.763 7.82085 136.447 7.83285 137.143 7.85685C137.839 7.85685 138.367 7.85685 138.727 7.85685C138.727 7.85685 138.943 8.13285 139.375 8.68485C139.807 9.21285 140.359 9.92085 141.031 10.8089C141.727 11.6729 142.483 12.6209 143.299 13.6529C144.115 14.6849 144.907 15.7049 145.675 16.7129C146.443 17.6969 147.127 18.5729 147.727 19.3409C148.327 20.1089 148.759 20.6609 149.023 20.9969H149.095C149.071 18.5729 149.047 16.4489 149.023 14.6249C148.999 12.7769 148.939 11.2289 148.843 9.98085C148.771 9.26085 148.579 8.90085 148.267 8.90085H147.007C146.911 8.90085 146.839 8.84085 146.791 8.72085C146.767 8.57685 146.755 8.43285 146.755 8.28885C146.755 8.16885 146.779 8.06085 146.827 7.96485C146.875 7.84485 146.935 7.78485 147.007 7.78485C147.367 7.78485 147.847 7.79685 148.447 7.82085C149.047 7.84485 149.563 7.85685 149.995 7.85685C150.499 7.85685 151.063 7.84485 151.687 7.82085C152.311 7.79685 152.851 7.78485 153.307 7.78485C153.355 7.78485 153.403 7.84485 153.451 7.96485C153.499 8.06085 153.523 8.16885 153.523 8.28885C153.523 8.64885 153.451 8.82885 153.307 8.82885H152.047C151.687 8.82885 151.459 8.92485 151.363 9.11685C151.267 9.30885 151.195 9.60885 151.147 10.0169C151.075 10.6889 151.003 11.8049 150.931 13.3649C150.883 14.9009 150.835 16.7009 150.787 18.7649C150.763 20.8289 150.751 23.0009 150.751 25.2809C150.751 25.5209 150.535 25.6409 150.103 25.6409C149.743 25.6409 149.479 25.5569 149.311 25.3889ZM161.513 16.0289C162.281 16.0049 163.013 15.9689 163.709 15.9209C164.429 15.8729 165.029 15.8249 165.509 15.7769C165.989 15.7049 166.253 15.6569 166.301 15.6329L166.553 14.1209C166.601 14.0009 166.769 13.9409 167.057 13.9409C167.129 13.9409 167.225 13.9649 167.345 14.0129C167.465 14.0369 167.525 14.0969 167.525 14.1929C167.477 14.5769 167.441 14.9489 167.417 15.3089C167.393 15.6449 167.381 16.0169 167.381 16.4249C167.381 16.7849 167.393 17.1809 167.417 17.6129C167.441 18.0209 167.477 18.4289 167.525 18.8369C167.525 18.9089 167.453 18.9689 167.309 19.0169C167.189 19.0409 167.069 19.0529 166.949 19.0529C166.853 19.0529 166.757 19.0409 166.661 19.0169C166.589 18.9929 166.553 18.9569 166.553 18.9089L166.265 17.3609C166.217 17.3129 165.953 17.2649 165.473 17.2169C165.017 17.1689 164.441 17.1209 163.745 17.0729C163.049 17.0249 162.305 16.9889 161.513 16.9649V21.3209C161.513 22.3289 161.585 23.0369 161.729 23.4449C161.873 23.8289 162.041 24.0209 162.233 24.0209H163.385C164.513 23.9969 165.581 23.8889 166.589 23.6969C167.621 23.5049 168.377 23.2409 168.857 22.9049L169.037 21.5009C169.061 21.4289 169.133 21.3809 169.253 21.3569C169.397 21.3089 169.517 21.2849 169.613 21.2849C169.733 21.2849 169.841 21.2969 169.937 21.3209C170.033 21.3449 170.069 21.4049 170.045 21.5009C169.949 22.1249 169.889 22.8329 169.865 23.6249C169.841 24.3929 169.829 25.1009 169.829 25.7489C169.829 25.8209 169.769 25.8689 169.649 25.8929C169.553 25.9169 169.469 25.9289 169.397 25.9289C169.301 25.9289 169.181 25.9169 169.037 25.8929C168.917 25.8689 168.857 25.8209 168.857 25.7489V25.1729H162.449C160.985 25.1729 159.857 25.1729 159.065 25.1729C158.273 25.1969 157.685 25.2089 157.301 25.2089C156.917 25.2329 156.593 25.2449 156.329 25.2449C156.233 25.2449 156.161 25.1729 156.113 25.0289C156.089 24.8849 156.077 24.7649 156.077 24.6689C156.077 24.5489 156.089 24.4409 156.113 24.3449C156.161 24.2249 156.221 24.1649 156.293 24.1649H157.913C158.177 24.1649 158.333 24.1049 158.381 23.9849C158.429 23.8649 158.453 23.5769 158.453 23.1209V11.7809C158.453 10.7729 158.381 10.0409 158.237 9.58485C158.117 9.12885 157.949 8.90085 157.733 8.90085H156.437C156.149 8.90085 156.005 8.72085 156.005 8.36085C156.005 7.97685 156.137 7.78485 156.401 7.78485C156.857 7.78485 157.409 7.79685 158.057 7.82085C158.729 7.84485 159.401 7.85685 160.073 7.85685H167.525V7.28085C167.525 7.20885 167.573 7.16085 167.669 7.13685C167.765 7.08885 167.861 7.06485 167.957 7.06485C168.053 7.06485 168.161 7.08885 168.281 7.13685C168.425 7.16085 168.497 7.20885 168.497 7.28085C168.497 7.92885 168.509 8.63685 168.533 9.40485C168.581 10.1729 168.653 10.8209 168.749 11.3489C168.773 11.4209 168.737 11.4809 168.641 11.5289C168.545 11.5529 168.449 11.5649 168.353 11.5649C168.257 11.5649 168.125 11.5529 167.957 11.5289C167.813 11.4809 167.741 11.4209 167.741 11.3489C167.645 11.0129 167.525 10.6529 167.381 10.2689C167.261 9.88485 167.057 9.62085 166.769 9.47685C166.313 9.30885 165.749 9.17685 165.077 9.08085C164.405 8.98485 163.505 8.93685 162.377 8.93685C162.041 8.96085 161.813 9.06885 161.693 9.26085C161.573 9.42885 161.513 9.71685 161.513 10.1249V16.0289ZM172.881 17.1089C172.881 15.6209 173.157 14.2889 173.709 13.1129C174.285 11.9129 175.065 10.8929 176.049 10.0529C177.033 9.18885 178.149 8.52885 179.397 8.07285C180.669 7.61685 181.989 7.38885 183.357 7.38885C184.173 7.38885 184.917 7.49685 185.589 7.71285C186.285 7.90485 186.909 8.14485 187.461 8.43285V7.82085C187.461 7.65285 187.605 7.56885 187.893 7.56885C187.989 7.56885 188.085 7.59285 188.181 7.64085C188.301 7.66485 188.361 7.72485 188.361 7.82085C188.361 8.46885 188.397 9.26085 188.469 10.1969C188.541 11.1329 188.625 11.9129 188.721 12.5369C188.745 12.6329 188.697 12.7049 188.577 12.7529C188.481 12.8009 188.373 12.8249 188.253 12.8249C188.157 12.8249 188.049 12.8009 187.929 12.7529C187.809 12.7049 187.737 12.6329 187.713 12.5369L187.425 10.6289C186.705 9.93285 185.973 9.44085 185.229 9.15285C184.485 8.86485 183.669 8.72085 182.781 8.72085C181.653 8.72085 180.609 9.05685 179.649 9.72885C178.689 10.4009 177.921 11.3249 177.345 12.5009C176.769 13.6529 176.481 14.9849 176.481 16.4969C176.481 18.0089 176.781 19.3529 177.381 20.5289C178.005 21.7049 178.821 22.6289 179.829 23.3009C180.837 23.9729 181.953 24.3089 183.177 24.3089C184.065 24.3089 184.881 24.1889 185.625 23.9489C186.393 23.6849 187.173 23.2889 187.965 22.7609L188.145 20.7089C188.145 20.5169 188.301 20.4209 188.613 20.4209C188.709 20.4209 188.829 20.4449 188.973 20.4929C189.117 20.5169 189.177 20.5889 189.153 20.7089C189.081 21.0689 189.033 21.5249 189.009 22.0769C188.985 22.6289 188.961 23.1929 188.937 23.7689C188.937 24.3209 188.937 24.8129 188.937 25.2449C188.937 25.3169 188.865 25.3649 188.721 25.3889C188.601 25.4369 188.493 25.4609 188.397 25.4609C188.109 25.4609 187.965 25.3889 187.965 25.2449V24.6329C186.309 25.3049 184.665 25.6409 183.033 25.6409C181.113 25.6409 179.385 25.2929 177.849 24.5969C176.313 23.9009 175.101 22.9169 174.213 21.6449C173.325 20.3729 172.881 18.8609 172.881 17.1089ZM201.227 21.3209C201.227 22.3289 201.299 23.0369 201.443 23.4449C201.587 23.8529 201.755 24.0569 201.947 24.0569H203.747C203.819 24.0569 203.879 24.1169 203.927 24.2369C203.999 24.3569 204.035 24.5009 204.035 24.6689C204.035 24.7889 204.011 24.9089 203.963 25.0289C203.939 25.1249 203.891 25.1729 203.819 25.1729C203.387 25.1729 202.823 25.1729 202.127 25.1729C201.431 25.1489 200.603 25.1369 199.643 25.1369C198.491 25.1369 197.675 25.1489 197.195 25.1729C196.715 25.2209 196.331 25.2449 196.043 25.2449C195.947 25.2449 195.875 25.1729 195.827 25.0289C195.803 24.8849 195.791 24.7649 195.791 24.6689C195.791 24.5489 195.803 24.4409 195.827 24.3449C195.875 24.2249 195.935 24.1649 196.007 24.1649H197.627C197.891 24.1649 198.047 24.1049 198.095 23.9849C198.143 23.8649 198.167 23.5769 198.167 23.1209V12.1769C198.167 11.2169 198.107 10.5089 197.987 10.0529C197.867 9.59685 197.711 9.34485 197.519 9.29685C196.607 9.29685 195.791 9.32085 195.071 9.36885C194.375 9.41685 193.739 9.51285 193.163 9.65685C192.851 9.75285 192.611 10.0169 192.443 10.4489C192.275 10.8809 192.155 11.2649 192.083 11.6009C192.083 11.6969 192.023 11.7689 191.903 11.8169C191.807 11.8409 191.711 11.8529 191.615 11.8529C191.519 11.8529 191.399 11.8409 191.255 11.8169C191.135 11.7689 191.087 11.6969 191.111 11.6009C191.183 11.0489 191.231 10.3649 191.255 9.54885C191.279 8.70885 191.291 7.96485 191.291 7.31685C191.291 7.26885 191.363 7.22085 191.507 7.17285C191.651 7.12485 191.771 7.10085 191.867 7.10085C191.939 7.10085 192.023 7.12485 192.119 7.17285C192.215 7.19685 192.263 7.24485 192.263 7.31685V7.78485C192.455 7.78485 192.803 7.79685 193.307 7.82085C193.811 7.82085 194.387 7.83285 195.035 7.85685C195.707 7.85685 196.355 7.85685 196.979 7.85685H199.643C199.931 7.85685 200.423 7.85685 201.119 7.85685C201.839 7.85685 202.607 7.85685 203.423 7.85685C204.239 7.83285 204.971 7.82085 205.619 7.82085C206.291 7.79685 206.747 7.78485 206.987 7.78485H207.095V7.31685C207.095 7.24485 207.143 7.19685 207.239 7.17285C207.335 7.12485 207.419 7.10085 207.491 7.10085C207.611 7.10085 207.731 7.12485 207.851 7.17285C207.995 7.22085 208.067 7.26885 208.067 7.31685C208.067 7.96485 208.079 8.70885 208.103 9.54885C208.127 10.3649 208.175 11.0489 208.247 11.6009C208.271 11.6969 208.223 11.7689 208.103 11.8169C207.983 11.8409 207.863 11.8529 207.743 11.8529C207.647 11.8529 207.539 11.8409 207.419 11.8169C207.323 11.7689 207.275 11.6969 207.275 11.6009C207.203 11.2649 207.083 10.8809 206.915 10.4489C206.771 10.0169 206.531 9.75285 206.195 9.65685C205.643 9.53685 205.031 9.45285 204.359 9.40485C203.711 9.35685 203.015 9.32085 202.271 9.29685H201.587C201.347 9.32085 201.227 9.51285 201.227 9.87285V21.3209Z" fill="black"/>
</svg>
